<?xml version="1.0" standalone="no"?>
<!DOCTYPE svg PUBLIC "-//W3C//DTD SVG 1.1//EN" "http://www.w3.org/Graphics/SVG/1.1/DTD/svg11.dtd" >
<svg xmlns="http://www.w3.org/2000/svg" xmlns:xlink="http://www.w3.org/1999/xlink" version="1.1">
<metadata>
Created by FontForge 20190801 at Thu Apr 11 13:38:16 2013
 By www-data
Generated in 2013 by FontLab Studio. Copyright info pending.
</metadata>
<defs>
<font id="CircularStdMedium" horiz-adv-x="570" >
  <font-face 
    font-family="CircularStdMedium"
    font-weight="500"
    font-stretch="normal"
    units-per-em="1000"
    panose-1="2 11 6 4 2 1 1 1 1 2"
    ascent="809"
    descent="-191"
    x-height="487"
    cap-height="709"
    bbox="-51 -238 1520 979"
    underline-thickness="80"
    underline-position="-195"
    unicode-range="U+000D-FEFF"
  />
<missing-glyph horiz-adv-x="574" 
d="M75 0v709h424v-709h-424zM171 96h232v517h-232v-517z" />
    <glyph glyph-name="f_f" unicode="ff" horiz-adv-x="670" 
d="M611 625q-28 0 -50 -17t-22 -57v-64h113v-101h-113v-386h-117v386h-203v-386h-117v386h-85v101h85v67q0 81 47 128t123 47q41 0 61 -10v-99q-18 5 -42 5q-28 0 -50 -17t-22 -57v-64h203v67q0 81 47 128t123 47q41 0 61 -10v-99q-17 5 -42 5z" />
    <glyph glyph-name="f_f_i" unicode="ffi" horiz-adv-x="940" 
d="M732 659q0 31 22 53.5t53 22.5t53.5 -22.5t22.5 -53.5t-22.5 -53t-53.5 -22t-53 22t-22 53zM611 625q-28 0 -50 -17t-22 -57v-64h326v-487h-115v386h-211v-386h-117v386h-203v-386h-117v386h-85v101h85v67q0 81 47 128t123 47q41 0 61 -10v-99q-18 5 -42 5
q-29 0 -50.5 -16.5t-21.5 -57.5v-64h203v67q0 81 47 128t123 47q41 0 61 -10v-99q-17 5 -42 5z" />
    <glyph glyph-name="f_f_l" unicode="ffl" horiz-adv-x="940" 
d="M611 625q-28 0 -50 -17t-22 -57v-64h211v237h115v-724h-115v386h-211v-386h-117v386h-203v-386h-117v386h-85v101h85v67q0 81 47 128t123 47q41 0 61 -10v-99q-18 5 -42 5q-28 0 -50 -17t-22 -57v-64h203v67q0 81 47 128t123 47q41 0 61 -10v-99q-17 5 -42 5z" />
    <glyph glyph-name="f_i" unicode="fi" horiz-adv-x="619" 
d="M272 729q41 0 61 -10v-99q-18 5 -42 5q-28 0 -50 -17t-22 -57v-64h324v-487h-114v386h-210v-386h-117v386h-85v101h85v67q0 81 47 128t123 47zM411 659q0 32 22 54t53 22q32 0 54 -22.5t22 -53.5t-22.5 -53t-53.5 -22t-53 22t-22 53z" />
    <glyph glyph-name="f_l" unicode="fl" horiz-adv-x="617" 
d="M291 625q-28 0 -50 -17t-22 -57v-64h208v237h115v-724h-115v386h-208v-386h-117v386h-85v101h85v67q0 81 47 128t123 47q41 0 61 -10v-99q-18 5 -42 5z" />
    <glyph glyph-name=".notdef" horiz-adv-x="574" 
d="M75 0v709h424v-709h-424zM171 96h232v517h-232v-517z" />
    <glyph glyph-name=".null" horiz-adv-x="0" 
 />
    <glyph glyph-name=".null" horiz-adv-x="0" 
 />
    <glyph glyph-name="uni000D" unicode="&#xd;" horiz-adv-x="248" 
 />
    <glyph glyph-name="space" unicode=" " horiz-adv-x="248" 
 />
    <glyph glyph-name="exclam" unicode="!" horiz-adv-x="324" 
d="M232 709l-28 -499h-84l-29 499h141zM89 66q0 30 21 52t51 22q31 0 52.5 -22t21.5 -52t-21.5 -51.5t-52.5 -21.5q-30 0 -51 21.5t-21 51.5z" />
    <glyph glyph-name="quotedbl" unicode="&#x22;" horiz-adv-x="390" 
d="M37 591q0 30 19 49.5t49 19.5t49 -19.5t19 -49.5q0 -14 -3 -23l-45 -185h-41l-44 185q-3 15 -3 23zM217 591q0 30 19 49.5t49 19.5t49 -19.5t19 -49.5q0 -14 -3 -23l-45 -185h-41l-44 185q-3 15 -3 23z" />
    <glyph glyph-name="numbersign" unicode="#" horiz-adv-x="740" 
d="M94 400v87h144l35 161h95l-35 -161h136l35 161h96l-35 -161h130v-87h-149l-32 -149h132v-87h-150l-35 -164h-96l35 164h-136l-35 -164h-95l35 164h-124v87h142l32 149h-125zM314 400l-32 -149h136l32 149h-136z" />
    <glyph glyph-name="dollar" unicode="$" horiz-adv-x="595" 
d="M354 -117h-92v105q-97 12 -152 71t-63 131l112 31q4 -47 30 -82.5t73 -46.5v184l-18 4q-81 18 -126.5 65t-45.5 119q0 74 53.5 129.5t136.5 66.5v106h92v-107q81 -13 125.5 -60.5t56.5 -106.5l-108 -34q-12 71 -74 95v-179l9 -2q87 -19 133.5 -70t46.5 -120
q0 -71 -50 -126t-139 -67v-106zM189 471q0 -28 18.5 -49.5t54.5 -28.5v164q-35 -9 -54 -32.5t-19 -53.5zM427 176q0 60 -73 80v-164q36 7 54.5 30.5t18.5 53.5z" />
    <glyph glyph-name="percent" unicode="%" horiz-adv-x="837" 
d="M142 496q0 -32 20.5 -53t50.5 -21t50 21t20 53t-20 52.5t-50 20.5t-50.5 -20.5t-20.5 -52.5zM49 496q0 67 48.5 114t115.5 47t115.5 -47t48.5 -114t-48.5 -113.5t-116.5 -46.5q-67 0 -115 46.5t-48 113.5zM560 151q0 -32 20.5 -53t50.5 -21t50 21t20 53t-20 52.5
t-50 20.5t-50.5 -20.5t-20.5 -52.5zM467 151q0 67 48.5 114t115.5 47t115.5 -47t48.5 -114t-48.5 -113.5t-116.5 -46.5q-67 0 -115 46.5t-48 113.5zM244 0h-105l462 648h104z" />
    <glyph glyph-name="ampersand" unicode="&#x26;" horiz-adv-x="708" 
d="M553 0l-80 84q-90 -97 -194 -97q-97 0 -154 55.5t-57 130.5q0 63 30 106t93 90l7 5l-12 13q-81 83 -81 156q0 83 57.5 132t132.5 49q84 0 139 -48.5t55 -127.5q0 -84 -100 -160l-31 -23l118 -123l169 182v-150l-97 -107l160 -167h-155zM281 92q56 0 118 67l1 1l-131 139
l-24 -18q-58 -43 -58 -100q0 -35 26 -62t68 -27zM219 550q0 -38 47 -89l20 -22l41 30q48 36 48 81q0 32 -22.5 54t-56.5 22q-31 0 -54 -20t-23 -56z" />
    <glyph glyph-name="quotesingle" unicode="'" horiz-adv-x="210" 
d="M37 591q0 30 19 49.5t49 19.5t49 -19.5t19 -49.5q0 -14 -3 -23l-45 -185h-41l-44 185q-3 15 -3 23z" />
    <glyph glyph-name="parenleft" unicode="(" horiz-adv-x="317" 
d="M48 320q0 287 201 488l68 -62q-171 -187 -171 -426q0 -240 171 -427l-68 -61q-201 201 -201 488z" />
    <glyph glyph-name="parenright" unicode=")" horiz-adv-x="317" 
d="M269 320q0 -289 -201 -488l-68 61q171 186 171 427q0 240 -171 426l68 62q201 -199 201 -488z" />
    <glyph glyph-name="asterisk" unicode="*" horiz-adv-x="448" 
d="M271 709v-130l119 40l29 -86l-121 -40l78 -102l-73 -54l-80 105l-75 -104l-74 54l76 101l-121 40l29 86l119 -41v131h94z" />
    <glyph glyph-name="plus" unicode="+" horiz-adv-x="579" 
d="M52 339h188v195h99v-195h188v-95h-188v-197h-99v197h-188v95z" />
    <glyph glyph-name="comma" unicode="," horiz-adv-x="304" 
d="M65 73q0 32 24 54t59 22q40 0 65.5 -29t25.5 -77q0 -95 -50.5 -147.5t-112.5 -60.5v59q35 8 61.5 39t27.5 69q-10 -5 -24 -5q-33 0 -54.5 21t-21.5 55z" />
    <glyph glyph-name="hyphen" unicode="-" horiz-adv-x="372" 
d="M327 241h-282v103h282v-103z" />
    <glyph glyph-name="period" unicode="." horiz-adv-x="296" 
d="M67 75q0 34 23.5 58t57.5 24t58 -24t24 -58t-24 -57.5t-58 -23.5t-57.5 23.5t-23.5 57.5z" />
    <glyph glyph-name="slash" unicode="/" horiz-adv-x="456" 
d="M456 714l-349 -719h-107l349 719h107z" />
    <glyph glyph-name="zero" unicode="0" horiz-adv-x="619" 
d="M164 324q0 -126 46 -185q36 -48 100 -48q62 0 100 48q45 58 45 185t-45 185q-38 48 -100 48q-64 0 -100 -48q-46 -57 -46 -185zM45 324q0 146 58 233q71 106 207 106q135 0 206 -106q58 -87 58 -233t-58 -233q-71 -106 -206 -106q-136 0 -207 106q-58 87 -58 233z" />
    <glyph glyph-name="one" unicode="1" horiz-adv-x="376" 
d="M303 0h-118v444h-157v82q68 1 114 35.5t57 86.5h104v-648z" />
    <glyph glyph-name="two" unicode="2" horiz-adv-x="537" 
d="M158 405l-116 8q-3 27 -3 37q0 88 62.5 150.5t168.5 62.5q104 0 166 -59t62 -145q0 -124 -125 -201l-126 -78q-55 -33 -66 -74h321v-106h-469q2 87 37 152t117 116l107 67q83 52 83 122q0 43 -28.5 72t-80.5 29q-55 0 -84 -33.5t-29 -86.5z" />
    <glyph glyph-name="three" unicode="3" horiz-adv-x="551" 
d="M219 294l-55 89l179 160h-295v105h450v-100l-176 -154q78 -2 136 -55t58 -142q0 -88 -66 -150t-177 -62q-108 0 -174.5 59.5t-72.5 145.5l117 24q2 -56 38.5 -91t90.5 -35q57 0 90 32t33 78q0 52 -34.5 79.5t-80.5 27.5q-39 0 -61 -11z" />
    <glyph glyph-name="four" unicode="4" horiz-adv-x="587" 
d="M33 142v130l276 376h154v-400h109v-106h-109v-142h-118v142h-312zM345 248v279l-204 -279h204z" />
    <glyph glyph-name="five" unicode="5" horiz-adv-x="551" 
d="M32 179l113 29q4 -53 40 -87t91 -34q52 0 87.5 32.5t35.5 85.5q0 57 -36 88.5t-89 31.5q-68 0 -108 -45l-113 41l80 327h355v-105h-274l-40 -164q43 45 124 45q99 0 160.5 -58t61.5 -158q0 -94 -67 -159t-177 -65q-102 0 -170 57.5t-74 137.5z" />
    <glyph glyph-name="six" unicode="6" horiz-adv-x="581" 
d="M532 631l-34 -98q-48 26 -111 26q-92 0 -152.5 -56.5t-68.5 -150.5q50 77 165 77q98 0 159 -60t61 -159t-71 -162t-175 -63q-120 0 -189.5 86t-69.5 215q0 173 97 275t251 102q88 0 138 -32zM179 208q0 -54 37.5 -87.5t88.5 -33.5q53 0 89.5 33t36.5 88t-36.5 88
t-89.5 33t-89.5 -33t-36.5 -88z" />
    <glyph glyph-name="seven" unicode="7" horiz-adv-x="494" 
d="M489 648v-105q-24 -20 -46.5 -42t-61.5 -72.5t-68 -106t-55.5 -142t-34.5 -180.5h-124q8 101 37 194.5t65 154t70.5 106.5t58.5 67l23 21h-348v105h484z" />
    <glyph glyph-name="eight" unicode="8" horiz-adv-x="565" 
d="M282 378q48 1 77.5 27.5t29.5 67.5q0 38 -29.5 65t-77.5 27t-77 -27t-29 -65q0 -41 29 -67.5t77 -27.5zM282 86q57 0 89.5 28.5t32.5 70.5t-32.5 71t-89.5 29q-56 0 -88.5 -29t-32.5 -71t32.5 -70.5t88.5 -28.5zM282 -15q-109 0 -174.5 53t-65.5 135q0 54 33.5 97.5
t86.5 61.5q-46 17 -75.5 58.5t-29.5 89.5q0 81 63.5 132t161.5 51t162 -51t64 -132q0 -47 -29.5 -89t-75.5 -59q52 -19 86 -62t34 -97q0 -82 -65.5 -135t-175.5 -53z" />
    <glyph glyph-name="nine" unicode="9" horiz-adv-x="582" 
d="M55 22l33 98q47 -30 116 -30q100 0 155 55t60 149q-19 -33 -60.5 -54t-97.5 -21q-92 0 -158 59.5t-66 158.5t70 162.5t174 63.5q109 0 182.5 -78t73.5 -225q0 -179 -84.5 -277t-247.5 -98q-40 0 -83 10.5t-67 26.5zM403 441q0 52 -37 86t-87 34q-51 0 -87.5 -33.5
t-36.5 -86.5q0 -55 36 -88t88 -33q51 0 87.5 33.5t36.5 87.5z" />
    <glyph glyph-name="colon" unicode=":" horiz-adv-x="302" 
d="M71 74q0 34 23.5 57.5t57.5 23.5q33 0 57 -23.5t24 -57.5q0 -33 -24 -56.5t-57 -23.5q-34 0 -57.5 23.5t-23.5 56.5zM70 412q0 34 23.5 57.5t57.5 23.5q33 0 57 -23.5t24 -57.5q0 -33 -24 -56.5t-57 -23.5q-34 0 -57.5 23.5t-23.5 56.5z" />
    <glyph glyph-name="semicolon" unicode=";" horiz-adv-x="307" 
d="M71 69q0 30 23 51.5t56 21.5q38 0 62 -28t24 -73q0 -90 -48 -140t-107 -58v56q34 8 59 37.5t26 65.5q-10 -5 -23 -5q-32 0 -52 20t-20 52zM70 412q0 34 23.5 57.5t57.5 23.5q33 0 57 -23.5t24 -57.5q0 -33 -24 -56.5t-57 -23.5q-34 0 -57.5 23.5t-23.5 56.5z" />
    <glyph glyph-name="less" unicode="&#x3c;" horiz-adv-x="490" 
d="M35 244v94l422 212v-111l-302 -147l302 -148v-111z" />
    <glyph glyph-name="equal" unicode="=" horiz-adv-x="598" 
d="M537 343h-475v94h475v-94zM537 146h-475v95h475v-95z" />
    <glyph glyph-name="greater" unicode="&#x3e;" horiz-adv-x="490" 
d="M455 338v-94l-422 -211v110l304 148l-304 147v112z" />
    <glyph glyph-name="question" unicode="?" horiz-adv-x="520" 
d="M295 210h-100q-2 26 -2 38q0 92 81 151l46 33q47 34 47 87q0 42 -28 71.5t-80 29.5q-53 0 -83 -34t-30 -80q0 -28 6 -45l-113 8q-6 21 -6 46q0 82 60 145.5t166 63.5t167 -59t61 -141q0 -105 -100 -176l-43 -30q-50 -35 -50 -95q0 -7 1 -13zM173 66q0 30 21.5 52t51.5 22
t51.5 -22t21.5 -52t-21.5 -51.5t-51.5 -21.5q-31 0 -52 21.5t-21 51.5z" />
    <glyph glyph-name="at" unicode="@" horiz-adv-x="826" 
d="M594 138q-38 0 -64 16.5t-34 45.5q-20 -31 -51.5 -47.5t-65.5 -16.5q-66 0 -109 48t-43 124q0 98 58 163.5t140 65.5q33 0 61.5 -15.5t39.5 -45.5l9 48h88l-53 -248q-3 -15 -3 -21q0 -38 34 -38q40 0 71.5 53t31.5 126q0 108 -75 177t-195 69q-130 0 -215 -86t-85 -224
q0 -131 83.5 -214.5t225.5 -83.5q109 0 193 64l45 -61q-41 -38 -108 -61t-130 -23q-177 0 -289 105t-112 274q0 172 113.5 282t277.5 110q153 0 255.5 -93.5t102.5 -233.5q0 -111 -58.5 -184.5t-138.5 -74.5zM504 368q0 40 -19.5 62.5t-55.5 22.5q-49 0 -79 -42.5t-30 -95.5
q0 -43 19 -69.5t58 -26.5q46 0 75.5 42t31.5 107z" />
    <glyph glyph-name="A" unicode="A" horiz-adv-x="711" 
d="M570 0l-67 178h-300l-66 -178h-127l276 709h139l276 -709h-131zM353 579l-108 -290h216z" />
    <glyph glyph-name="B" unicode="B" horiz-adv-x="607" 
d="M85 709h244q100 0 158 -53t58 -138q0 -55 -29 -95.5t-76 -57.5q57 -15 92 -61t35 -108q0 -86 -61 -141t-159 -55h-262v709zM204 409h109q52 0 82 27t30 72q0 46 -30.5 72.5t-84.5 26.5h-106v-198zM204 102h122q54 0 86.5 27.5t32.5 74.5t-30.5 75.5t-84.5 28.5h-126v-206
z" />
    <glyph glyph-name="C" unicode="C" horiz-adv-x="758" 
d="M400 -15q-149 0 -253.5 101t-104.5 268q0 166 106 268t251 102q128 0 210.5 -65t108.5 -165l-113 -38q-17 69 -69 112t-137 43q-95 0 -164.5 -67.5t-69.5 -189.5q0 -119 69 -186.5t166 -67.5q83 0 137 45t74 111l110 -36q-26 -99 -109.5 -167t-211.5 -68z" />
    <glyph glyph-name="D" unicode="D" horiz-adv-x="722" 
d="M205 110h126q98 0 161.5 62.5t63.5 180.5q0 119 -63 182.5t-161 63.5h-127v-489zM335 0h-250v709h251q150 0 247.5 -95t97.5 -261q0 -165 -98 -259t-248 -94z" />
    <glyph glyph-name="E" unicode="E" horiz-adv-x="582" 
d="M523 0h-438v709h438v-112h-318v-188h288v-109h-288v-188h318v-112z" />
    <glyph glyph-name="F" unicode="F" horiz-adv-x="557" 
d="M205 0h-120v709h441v-113h-321v-199h288v-111h-288v-286z" />
    <glyph glyph-name="G" unicode="G" horiz-adv-x="774" 
d="M714 0h-97l-9 90q-26 -44 -82 -74.5t-135 -30.5q-145 0 -247 100.5t-102 269.5q0 112 51.5 198t131.5 128.5t174 42.5q123 0 206.5 -61t113.5 -155l-113 -43q-19 64 -73 106t-134 42q-95 0 -165 -67t-70 -191q0 -123 68 -191.5t166 -68.5q96 0 146.5 50.5t56.5 108.5
h-234v105h347v-359z" />
    <glyph glyph-name="H" unicode="H" horiz-adv-x="744" 
d="M659 0h-121v303h-333v-303h-120v709h120v-293h333v293h121v-709z" />
    <glyph glyph-name="I" unicode="I" horiz-adv-x="292" 
d="M207 0h-122v709h122v-709z" />
    <glyph glyph-name="J" unicode="J" horiz-adv-x="547" 
d="M20 214v46l117 24v-66q0 -60 30 -90t79 -30q48 0 76 30.5t28 84.5v496h120v-493q0 -97 -62 -164t-161 -67q-104 0 -165.5 62.5t-61.5 166.5z" />
    <glyph glyph-name="K" unicode="K" horiz-adv-x="685" 
d="M520 0l-221 307l-94 -103v-204h-120v709h120v-340l305 340h158l-287 -313l290 -396h-151z" />
    <glyph glyph-name="L" unicode="L" horiz-adv-x="555" 
d="M530 0h-445v709h120v-595h325v-114z" />
    <glyph glyph-name="M" unicode="M" horiz-adv-x="950" 
d="M865 0h-119v522l-221 -522h-104l-219 520v-520h-117v709h160l230 -541l227 541h163v-709z" />
    <glyph glyph-name="N" unicode="N" horiz-adv-x="765" 
d="M680 0h-125l-350 537v-537h-120v709h153l322 -503v503h120v-709z" />
    <glyph glyph-name="O" unicode="O" horiz-adv-x="805" 
d="M165 355q0 -121 70 -188.5t167 -67.5t167.5 67.5t70.5 188.5t-70.5 188.5t-167.5 67.5t-167 -67.5t-70 -188.5zM42 355q0 112 51.5 197.5t132.5 128.5t176 43t176 -43t133 -128.5t52 -197.5t-52 -198t-133 -129t-176 -43t-176 43t-132.5 129t-51.5 198z" />
    <glyph glyph-name="P" unicode="P" horiz-adv-x="602" 
d="M205 383h125q57 0 89.5 29.5t32.5 79.5q0 51 -32.5 81t-89.5 30h-125v-220zM348 277h-143v-277h-120v709h263q101 0 163.5 -61t62.5 -155q0 -95 -62.5 -155.5t-163.5 -60.5z" />
    <glyph glyph-name="Q" unicode="Q" horiz-adv-x="805" 
d="M42 355q0 112 51.5 197.5t132.5 128.5t176 43t176 -43t133 -128.5t52 -197.5q0 -151 -92 -253l84 -94l-81 -69l-87 95q-84 -49 -185 -49q-95 0 -176 43t-132.5 129t-51.5 198zM165 355q0 -121 70 -188.5t167 -67.5q59 0 106 23l-117 130l82 70l118 -131q49 67 49 164
q0 121 -70.5 188.5t-167.5 67.5t-167 -67.5t-70 -188.5z" />
    <glyph glyph-name="R" unicode="R" horiz-adv-x="622" 
d="M443 0l-149 280h-88v-280h-121v709h272q100 0 161 -61.5t61 -153.5q0 -76 -43 -130t-117 -72l160 -292h-136zM206 386h129q55 0 88.5 29.5t33.5 78.5q0 50 -33.5 79.5t-88.5 29.5h-129v-217z" />
    <glyph glyph-name="S" unicode="S" horiz-adv-x="599" 
d="M551 543l-108 -34q-7 41 -41 75t-98 34q-53 0 -87.5 -30t-34.5 -72q0 -73 83 -91l102 -21q92 -18 142 -73t50 -131q0 -88 -67.5 -151.5t-183.5 -63.5q-125 0 -195 65.5t-79 152.5l112 32q6 -60 48 -101t114 -41q62 0 95.5 27.5t33.5 70.5q0 35 -25 60.5t-70 35.5l-100 21
q-83 17 -131.5 69t-48.5 130q0 89 71 153t170 64q113 0 173 -54.5t75 -126.5z" />
    <glyph glyph-name="T" unicode="T" horiz-adv-x="607" 
d="M594 596h-231v-596h-120v596h-230v113h581v-113z" />
    <glyph glyph-name="U" unicode="U" horiz-adv-x="683" 
d="M341 -15q-116 0 -190 69t-74 193v462h119v-455q0 -74 38.5 -114.5t106.5 -40.5q69 0 107 40t38 115v455h120v-462q0 -124 -74.5 -193t-190.5 -69z" />
    <glyph glyph-name="V" unicode="V" horiz-adv-x="674" 
d="M338 157l199 552h127l-268 -709h-122l-264 709h130z" />
    <glyph glyph-name="W" unicode="W" horiz-adv-x="1017" 
d="M741 187l139 522h124l-199 -709h-124l-172 536l-172 -536h-123l-201 709h126l142 -518l166 518h125z" />
    <glyph glyph-name="X" unicode="X" horiz-adv-x="646" 
d="M631 709l-236 -355l235 -354h-144l-165 259l-167 -259h-141l237 355l-235 354h144l165 -260l166 260h141z" />
    <glyph glyph-name="Y" unicode="Y" horiz-adv-x="638" 
d="M258 300l-248 409h142l170 -297l171 297h135l-250 -409v-300h-120v300z" />
    <glyph glyph-name="Z" unicode="Z" horiz-adv-x="636" 
d="M595 0h-553v118l393 478h-382v113h537v-114l-398 -481h403v-114z" />
    <glyph glyph-name="bracketleft" unicode="[" horiz-adv-x="304" 
d="M299 -157h-214v956h214v-90h-116v-775h116v-91z" />
    <glyph glyph-name="backslash" unicode="\" horiz-adv-x="457" 
d="M348 -5l-348 719h110l347 -719h-109z" />
    <glyph glyph-name="bracketright" unicode="]" horiz-adv-x="304" 
d="M219 -157h-214v91h116v775h-116v90h214v-956z" />
    <glyph glyph-name="asciicircum" unicode="^" horiz-adv-x="526" 
d="M506 352h-113l-129 244l-130 -244h-114l196 358h94z" />
    <glyph glyph-name="underscore" unicode="_" horiz-adv-x="531" 
d="M521 -96h-511v96h511v-96z" />
    <glyph glyph-name="grave" unicode="`" horiz-adv-x="285" 
d="M161 548l-132 148h139l88 -148h-95z" />
    <glyph glyph-name="a" unicode="a" horiz-adv-x="532" 
d="M45 132q0 62 40.5 99.5t106.5 47.5l125 19q36 5 36 35q0 33 -23 53.5t-69 20.5q-44 0 -70 -24.5t-30 -63.5l-106 24q7 66 63 112.5t142 46.5q106 0 156.5 -51t50.5 -131v-242q0 -48 6 -78h-108q-5 15 -5 62q-48 -77 -150 -77q-74 0 -119.5 43.5t-45.5 103.5zM232 76
q54 0 87.5 29.5t33.5 96.5v22l-127 -19q-65 -11 -65 -66q0 -26 19 -44.5t52 -18.5z" />
    <glyph glyph-name="b" unicode="b" horiz-adv-x="604" 
d="M188 0h-113v724h114v-297q18 31 59 52t94 21q106 0 165.5 -71.5t59.5 -182.5q0 -113 -62.5 -185.5t-166.5 -72.5t-150 77v-65zM450 245q0 71 -36 111.5t-95 40.5q-57 0 -94 -40.5t-37 -111.5q0 -70 37 -112t94 -42q58 0 94.5 41.5t36.5 112.5z" />
    <glyph glyph-name="c" unicode="c" horiz-adv-x="541" 
d="M287 395q-56 0 -95 -40.5t-39 -110.5q0 -71 39.5 -112t96.5 -41q51 0 81.5 27.5t40.5 62.5l102 -37q-20 -65 -77.5 -112t-146.5 -47q-107 0 -179.5 74t-72.5 185q0 112 71.5 185t177.5 73q91 0 148.5 -47t74.5 -113l-104 -38q-10 38 -38.5 64.5t-79.5 26.5z" />
    <glyph glyph-name="d" unicode="d" horiz-adv-x="602" 
d="M153 245q0 -70 36 -112.5t95 -42.5q57 0 93 43t36 113q0 69 -35 110t-93 41t-95 -41.5t-37 -110.5zM525 724v-635q0 -49 5 -89h-111q-5 28 -5 63q-18 -33 -56 -54t-87 -21q-104 0 -169 73t-65 184q0 107 65.5 181t166.5 74q58 0 93.5 -21t49.5 -49v294h113z" />
    <glyph glyph-name="e" unicode="e" horiz-adv-x="548" 
d="M156 297h239q-2 46 -32.5 77t-87.5 31q-52 0 -84 -32.5t-35 -75.5zM408 170l98 -31q-21 -67 -78.5 -110.5t-141.5 -43.5q-104 0 -176.5 71t-72.5 190q0 112 70.5 184t166.5 72q112 0 175 -68.5t63 -184.5q0 -31 -3 -37h-356q2 -55 40.5 -91t92.5 -36q94 0 122 85z" />
    <glyph glyph-name="f" unicode="f" horiz-adv-x="350" 
d="M291 625q-29 0 -50.5 -16.5t-21.5 -57.5v-64h113v-101h-113v-386h-117v386h-85v101h85v67q0 81 47 128t123 47q41 0 61 -10v-99q-18 5 -42 5z" />
    <glyph glyph-name="g" unicode="g" horiz-adv-x="589" 
d="M40 -27l107 28q6 -46 39.5 -75.5t82.5 -29.5q138 0 138 146v51q-17 -31 -54 -51t-87 -20q-98 0 -161.5 67t-63.5 170q0 99 63 168t162 69q107 0 144 -71v62h112v-441q0 -108 -61 -179.5t-189 -71.5q-94 0 -158 51t-74 127zM285 121q56 0 90.5 37.5t34.5 100.5
q0 62 -35 99.5t-90 37.5q-56 0 -91.5 -37.5t-35.5 -99.5q0 -63 35 -100.5t92 -37.5z" />
    <glyph glyph-name="h" unicode="h" horiz-adv-x="574" 
d="M191 286v-286h-116v724h116v-284q47 61 139 61q86 0 132 -54t46 -139v-308h-116v288q0 49 -24 78.5t-76 29.5q-46 0 -72.5 -31t-28.5 -79z" />
    <glyph glyph-name="i" unicode="i" horiz-adv-x="265" 
d="M190 0h-115v487h115v-487zM57 658q0 31 22 53.5t53 22.5q32 0 54 -22t22 -54q0 -31 -22 -53t-54 -22q-31 0 -53 22t-22 53z" />
    <glyph glyph-name="j" unicode="j" horiz-adv-x="266" 
d="M75 -40v527h116v-536q0 -69 -39 -112.5t-106 -43.5q-44 0 -66 9v96q15 -3 35 -3q60 0 60 63zM57 659q0 31 22 53.5t53 22.5q32 0 54 -22.5t22 -53.5t-22.5 -53t-53.5 -22t-53 22t-22 53z" />
    <glyph glyph-name="k" unicode="k" horiz-adv-x="544" 
d="M531 487l-200 -206l204 -281h-142l-143 199l-60 -63v-136h-115v724h115v-434l187 197h154z" />
    <glyph glyph-name="l" unicode="l" horiz-adv-x="266" 
d="M191 0h-116v724h116v-724z" />
    <glyph glyph-name="m" unicode="m" horiz-adv-x="873" 
d="M190 0h-115v487h111v-62q20 36 60.5 56t83.5 20q49 0 88 -22t58 -64q51 86 158 86q72 0 122 -47t50 -138v-316h-112v297q0 45 -23.5 72.5t-70.5 27.5q-45 0 -73 -31t-28 -77v-289h-114v297q0 45 -23.5 72.5t-70.5 27.5q-46 0 -73.5 -30.5t-27.5 -77.5v-289z" />
    <glyph glyph-name="n" unicode="n" horiz-adv-x="574" 
d="M191 281v-281h-116v487h113v-65q23 40 61.5 59.5t82.5 19.5q86 0 131 -54t45 -139v-308h-116v288q0 49 -24 78.5t-76 29.5q-48 0 -74.5 -32.5t-26.5 -82.5z" />
    <glyph glyph-name="o" unicode="o" horiz-adv-x="579" 
d="M289 89q57 0 96.5 41t39.5 114q0 72 -39.5 112.5t-96.5 40.5t-96.5 -40.5t-39.5 -112.5t39.5 -113.5t96.5 -41.5zM289 502q110 0 181.5 -73t71.5 -185t-71.5 -185.5t-181.5 -73.5q-109 0 -180.5 73.5t-71.5 185.5t71.5 185t180.5 73z" />
    <glyph glyph-name="p" unicode="p" horiz-adv-x="604" 
d="M190 -190h-115v677h112v-66q19 33 60 55t95 22q105 0 165 -71.5t60 -182.5t-63 -183.5t-166 -72.5q-50 0 -89 19t-59 48v-245zM451 244q0 68 -36 109.5t-95 41.5q-58 0 -94.5 -41.5t-36.5 -109.5q0 -69 36.5 -111t94.5 -42t94.5 42t36.5 111z" />
    <glyph glyph-name="q" unicode="q" horiz-adv-x="596" 
d="M528 -190h-114v248q-39 -70 -143 -70q-103 0 -168.5 73.5t-65.5 183.5q0 108 63.5 181t167.5 73q58 0 96 -23t53 -54v65h111v-677zM154 245q0 -69 36.5 -112t93.5 -43t94 43t37 112t-36.5 110t-94.5 41t-94 -41t-36 -110z" />
    <glyph glyph-name="r" unicode="r" horiz-adv-x="380" 
d="M360 490v-118q-20 3 -38 3q-131 0 -131 -143v-232h-116v487h113v-78q17 39 55 61.5t86 22.5q16 0 31 -3z" />
    <glyph glyph-name="s" unicode="s" horiz-adv-x="457" 
d="M32 132l101 28q3 -35 29 -59t70 -24q34 0 53.5 16t19.5 40q0 42 -57 54l-72 16q-63 14 -97 52t-34 90q0 64 52 110.5t127 46.5q48 0 85 -14t57.5 -36.5t31.5 -43.5t14 -42l-98 -28q-4 28 -25.5 50.5t-64.5 22.5q-30 0 -50 -16.5t-20 -39.5q0 -41 49 -51l74 -15
q68 -15 104 -54t36 -94q0 -61 -48.5 -108.5t-135.5 -47.5q-50 0 -89.5 15t-62 38.5t-35 47t-14.5 46.5z" />
    <glyph glyph-name="t" unicode="t" horiz-adv-x="365" 
d="M222 636v-149h101v-103h-101v-226q0 -32 15 -46.5t47 -14.5q20 0 40 4v-96q-26 -11 -71 -11q-68 0 -107 38.5t-39 106.5v245h-90v103h25q37 0 56 21t19 55v73h105z" />
    <glyph glyph-name="u" unicode="u" horiz-adv-x="577" 
d="M392 54q-17 -32 -55.5 -50t-82.5 -18q-85 0 -134.5 55t-49.5 139v307h116v-286q0 -49 24 -80t74 -31q49 0 75.5 30t26.5 79v288h116v-398q0 -44 5 -89h-111q-4 22 -4 54z" />
    <glyph glyph-name="v" unicode="v" horiz-adv-x="525" 
d="M515 487l-191 -487h-116l-198 487h128l129 -348l126 348h122z" />
    <glyph glyph-name="w" unicode="w" horiz-adv-x="814" 
d="M351 487h120l115 -337l97 337h118l-156 -487h-116l-121 350l-118 -350h-119l-158 487h124l99 -337z" />
    <glyph glyph-name="x" unicode="x" horiz-adv-x="513" 
d="M11 0l177 246l-174 241h138q5 -8 54.5 -79.5t52.5 -76.5l106 156h132l-171 -239l177 -248h-136l-113 163q-3 -4 -29.5 -43.5t-51.5 -76t-29 -43.5h-133z" />
    <glyph glyph-name="y" unicode="y" horiz-adv-x="543" 
d="M223 -197h-124l117 255l-208 429h131l140 -308l131 308h123z" />
    <glyph glyph-name="z" unicode="z" horiz-adv-x="474" 
d="M436 0h-398v101l247 284h-242v102h388v-98l-250 -287h255v-102z" />
    <glyph glyph-name="braceleft" unicode="{" horiz-adv-x="365" 
d="M45 273v100q47 0 76 23.5t29 72.5v140q0 95 48.5 142.5t138.5 47.5h23v-89h-22q-46 0 -68 -23t-22 -74v-166q0 -49 -27 -81t-75 -43q48 -11 75 -44t27 -81v-166q0 -51 22 -73.5t68 -22.5h22v-89h-23q-90 0 -138.5 47.5t-48.5 142.5v139q0 50 -29 73.5t-76 23.5z" />
    <glyph glyph-name="bar" unicode="|" horiz-adv-x="268" 
d="M183 -153h-98v952h98v-952z" />
    <glyph glyph-name="braceright" unicode="}" horiz-adv-x="365" 
d="M320 373v-100q-47 0 -76 -23.5t-29 -73.5v-139q0 -95 -48.5 -142.5t-138.5 -47.5h-23v89h22q46 0 68 22.5t22 73.5v166q0 48 27 81t75 44q-48 11 -75 43t-27 81v166q0 51 -22 74t-68 23h-22v89h23q90 0 138.5 -47.5t48.5 -142.5v-140q0 -49 29 -72.5t76 -23.5z" />
    <glyph glyph-name="asciitilde" unicode="~" horiz-adv-x="577" 
d="M287 236l-47 25q-28 14 -52 14q-52 0 -92 -54l-66 53q57 100 159 100q53 0 101 -27l46 -25q27 -15 55 -15q56 0 90 53l66 -53q-56 -99 -158 -99q-50 0 -102 28z" />
    <glyph glyph-name="uni00A0" unicode="&#xa0;" horiz-adv-x="248" 
 />
    <glyph glyph-name="exclamdown" unicode="&#xa1;" horiz-adv-x="291" 
d="M187 285l29 -498h-142l30 498h83zM72 429q0 30 21.5 51.5t51.5 21.5t52 -21.5t22 -51.5t-22 -51.5t-52 -21.5t-51.5 21t-21.5 52z" />
    <glyph glyph-name="cent" unicode="&#xa2;" horiz-adv-x="546" 
d="M325 0h-91v90q-83 17 -136 81.5t-53 153.5t53 153t136 81v90h91v-88q69 -11 113.5 -52t58.5 -93l-100 -35q-16 61 -72 78v-271q31 9 51 31.5t27 47.5l98 -35q-17 -53 -62 -94t-114 -51v-87zM154 325q0 -49 21.5 -83t58.5 -49v262q-80 -32 -80 -130z" />
    <glyph glyph-name="sterling" unicode="&#xa3;" horiz-adv-x="593" 
d="M67 368h64q-23 53 -23 105q0 80 58 135t148 55q106 0 156 -55t53 -128l-110 -18q-1 49 -27 75t-70 26q-39 0 -66 -24.5t-27 -67.5q0 -39 27 -103h188v-95h-159q2 -16 2 -24q0 -99 -83 -146h177q42 0 65 27t23 67l108 -12q0 -81 -47.5 -133t-125.5 -52h-336v104
q49 19 78 54.5t29 78.5q0 12 -4 36h-98v95z" />
    <glyph glyph-name="currency" unicode="&#xa4;" horiz-adv-x="585" 
d="M80 242q0 62 33 114l-74 75l72 71l74 -76q51 30 110 30q58 0 106 -28l73 74l71 -71l-70 -72q35 -53 35 -117q0 -63 -34 -116l69 -70l-70 -70l-71 72q-49 -29 -109 -29q-61 0 -112 31l-73 -74l-71 70l73 74q-32 49 -32 112zM179 242q0 -51 33 -84t83 -33t82.5 33t32.5 84
t-32.5 84t-82.5 33t-83 -33t-33 -84z" />
    <glyph glyph-name="yen" unicode="&#xa5;" horiz-adv-x="600" 
d="M535 144h-174v-144h-116v144h-171v84h171v74h-171v84h111l-162 262h135l146 -251l142 251h130l-158 -262h117v-84h-174v-74h174v-84z" />
    <glyph glyph-name="brokenbar" unicode="&#xa6;" horiz-adv-x="268" 
d="M85 799h98v-399h-98v399zM85 245h98v-399h-98v399z" />
    <glyph glyph-name="section" unicode="&#xa7;" horiz-adv-x="566" 
d="M488 246q0 -42 -23.5 -75t-56.5 -50q82 -57 82 -144q0 -83 -62 -136t-147 -53q-95 0 -149 51t-56 136l109 20q0 -52 25 -80.5t72 -28.5q40 0 65 21.5t25 59.5q0 48 -50 74l-103 53q-67 34 -103.5 72.5t-36.5 100.5q0 42 23.5 75t56.5 50q-82 56 -82 144q0 83 62 135.5
t147 52.5q94 0 148.5 -52t56.5 -134l-110 -20q0 52 -25 80t-71 28q-40 0 -65.5 -22.5t-25.5 -58.5q0 -47 51 -73l102 -53q67 -35 104 -73.5t37 -99.5zM327 301l-102 54q-38 -26 -38 -67q0 -49 52 -76l101 -54q39 27 39 67q0 47 -52 76z" />
    <glyph glyph-name="dieresis" unicode="&#xa8;" horiz-adv-x="393" 
d="M32 625q0 27 18.5 46t45.5 19q28 0 47 -19t19 -46q0 -28 -19 -46.5t-47 -18.5q-27 0 -45.5 18.5t-18.5 46.5zM232 625q0 27 18.5 46t45.5 19t46 -19t19 -46q0 -28 -19 -46.5t-46 -18.5t-45.5 18.5t-18.5 46.5z" />
    <glyph glyph-name="copyright" unicode="&#xa9;" horiz-adv-x="818" 
d="M124 355q0 -124 82 -209t202 -85q119 0 201.5 85t82.5 209t-82.5 208.5t-201.5 84.5q-120 0 -202 -84.5t-82 -208.5zM42 355q0 153 107 261t259 108t260 -108.5t108 -260.5q0 -153 -108 -261.5t-260 -108.5t-259 108.5t-107 261.5zM412 473q-44 0 -75 -31.5t-31 -86.5
q0 -56 31 -88t76 -32q40 0 63.5 21t32.5 49l80 -29q-15 -51 -60.5 -88t-115.5 -37q-84 0 -141 58.5t-57 145.5q0 88 56.5 145.5t139.5 57.5q72 0 116.5 -37t58.5 -89l-82 -30q-7 30 -29.5 50.5t-62.5 20.5z" />
    <glyph glyph-name="ordfeminine" unicode="&#xaa;" horiz-adv-x="425" 
d="M59 399q0 44 29 70.5t74 32.5l86 13q26 4 26 24q0 21 -16 34t-45 13t-46.5 -16t-19.5 -41l-81 17q5 46 44 79.5t103 33.5q76 0 112 -36.5t36 -93.5v-169q0 -39 4 -55h-82q-4 12 -4 42q-33 -52 -102 -52q-53 0 -85.5 30.5t-32.5 73.5zM196 363q34 0 56 19.5t22 62.5v15
l-82 -12q-43 -7 -43 -44q0 -17 12 -29t35 -12z" />
    <glyph glyph-name="guillemotleft" unicode="&#xab;" horiz-adv-x="500" 
d="M274 100h-111l-135 193l136 194h111l-134 -195zM481 100h-111l-135 193l136 194h111l-134 -195z" />
    <glyph glyph-name="logicalnot" unicode="&#xac;" horiz-adv-x="583" 
d="M523 142h-101v195h-377v97h478v-292z" />
    <glyph glyph-name="uni00AD" unicode="&#xad;" horiz-adv-x="372" 
d="M327 241h-282v103h282v-103z" />
    <glyph glyph-name="registered" unicode="&#xae;" horiz-adv-x="818" 
d="M42 355q0 153 107 261t259 108t260 -108.5t108 -260.5q0 -153 -108 -261.5t-260 -108.5t-259 108.5t-107 261.5zM124 355q0 -124 82 -209t202 -85q119 0 201.5 85t82.5 209t-82.5 208.5t-201.5 84.5q-120 0 -202 -84.5t-82 -208.5zM471 157l-76 144h-29v-144h-86v401h149
q58 0 97.5 -37t39.5 -91q0 -41 -22.5 -72.5t-59.5 -45.5l85 -155h-98zM366 374h49q30 0 46.5 14.5t16.5 40.5t-16.5 41t-46.5 15h-49v-111z" />
    <glyph glyph-name="macron" unicode="&#xaf;" horiz-adv-x="338" 
d="M308 577h-278v90h278v-90z" />
    <glyph glyph-name="degree" unicode="&#xb0;" horiz-adv-x="372" 
d="M115 500q0 -32 20.5 -53t50.5 -21t50 21t20 53t-20 52.5t-50 20.5t-50.5 -20.5t-20.5 -52.5zM22 500q0 67 48.5 114t115.5 47t115.5 -47t48.5 -114t-48.5 -113.5t-116.5 -46.5q-67 0 -115 46.5t-48 113.5z" />
    <glyph glyph-name="plusminus" unicode="&#xb1;" horiz-adv-x="581" 
d="M63 405h178v129h99v-129h178v-94h-178v-128h-99v128h-178v94zM63 143h455v-96h-455v96z" />
    <glyph glyph-name="twosuperior" unicode="&#xb2;" horiz-adv-x="392" 
d="M146 567l-84 -1q-3 15 -3 30q0 51 37 86t101 35q63 0 100 -34.5t37 -84.5q0 -66 -75 -111l-71 -43q-17 -12 -20 -25h169v-76h-281v12q0 100 87 152l60 36q41 24 41 56q0 18 -13 31t-36 13q-24 0 -38 -14.5t-14 -37.5q0 -12 3 -24z" />
    <glyph glyph-name="threesuperior" unicode="&#xb3;" horiz-adv-x="412" 
d="M55 444l80 24q4 -25 23 -41.5t46 -16.5t44 14t17 35q0 26 -17.5 38.5t-43.5 12.5q-16 0 -31 -6l-32 61l91 69h-164v75h279v-72l-94 -69q46 -5 74.5 -34t28.5 -76q0 -52 -41.5 -87.5t-109.5 -35.5q-63 0 -102.5 32t-47.5 77z" />
    <glyph glyph-name="acute" unicode="&#xb4;" horiz-adv-x="286" 
d="M256 696l-131 -148h-95l89 148h137z" />
    <glyph glyph-name="mu" unicode="&#xb5;" horiz-adv-x="584" 
d="M397 54q-17 -32 -55.5 -50t-82.5 -18q-38 0 -68 12v-188h-116v677h116v-286q0 -49 24 -80t74 -31q49 0 75.5 30t26.5 79v288h116v-398q0 -44 5 -89h-111q-4 22 -4 54z" />
    <glyph glyph-name="paragraph" unicode="&#xb6;" horiz-adv-x="648" 
d="M341 616v-813h-95v507h-17q-82 0 -140.5 56.5t-58.5 138.5q0 95 66.5 149.5t165.5 54.5h366v-93h-97v-813h-95v813h-95z" />
    <glyph glyph-name="periodcentered" unicode="&#xb7;" horiz-adv-x="284" 
d="M65 298q0 32 23 55t55 23q33 0 56 -23t23 -55q0 -33 -23 -55t-56 -22t-55.5 22t-22.5 55z" />
    <glyph glyph-name="cedilla" unicode="&#xb8;" horiz-adv-x="296" 
d="M117 -105l-35 43l48 75h78l-39 -60q43 -1 70 -24t27 -60q0 -39 -30.5 -65.5t-92.5 -26.5q-37 0 -68 14t-47 34l41 50q35 -35 73 -35q44 0 44 30q0 13 -11 21.5t-30 8.5q-15 0 -28 -5z" />
    <glyph glyph-name="onesuperior" unicode="&#xb9;" horiz-adv-x="298" 
d="M223 343h-91v233h-89v60q40 1 66 22.5t32 50.5h82v-366z" />
    <glyph glyph-name="ordmasculine" unicode="&#xba;" horiz-adv-x="483" 
d="M242 376q38 0 63.5 26.5t25.5 74.5t-25.5 74t-63.5 26t-63.5 -26t-25.5 -74q0 -47 26 -74t63 -27zM242 659q78 0 129 -51.5t51 -130.5t-51 -130.5t-129 -51.5t-129 51.5t-51 130.5t51 130.5t129 51.5z" />
    <glyph glyph-name="guillemotright" unicode="&#xbb;" horiz-adv-x="500" 
d="M337 100h-111l133 192l-134 195h111l136 -194zM130 100h-111l133 192l-134 195h111l136 -194z" />
    <glyph glyph-name="onequarter" unicode="&#xbc;" horiz-adv-x="796" 
d="M230 282h-91v233h-89v60q40 1 66 22.5t32 50.5h82v-366zM417 71v88l172 207h99v-222h62v-73h-62v-71h-90v71h-181zM598 144v125l-103 -125h103zM195 0h-105l462 648h104z" />
    <glyph glyph-name="onehalf" unicode="&#xbd;" horiz-adv-x="805" 
d="M230 282h-91v233h-89v60q40 1 66 22.5t32 50.5h82v-366zM194 0h-105l462 648h104zM567 224l-84 -1q-3 15 -3 30q0 51 37 86t101 35q63 0 100 -34.5t37 -84.5q0 -66 -75 -111l-71 -43q-17 -12 -20 -25h169v-76h-281v12q0 100 87 152l60 36q41 24 41 56q0 18 -13 31t-36 13
q-24 0 -38 -14.5t-14 -37.5q0 -12 3 -24z" />
    <glyph glyph-name="threequarters" unicode="&#xbe;" horiz-adv-x="869" 
d="M52 383l80 24q4 -25 23 -41.5t46 -16.5t44 14t17 35q0 26 -17.5 38.5t-43.5 12.5q-16 0 -31 -6l-32 61l91 69h-164v75h279v-72l-94 -69q46 -5 74.5 -34t28.5 -76q0 -52 -41.5 -87.5t-109.5 -35.5q-63 0 -102.5 32t-47.5 77zM491 71v88l172 207h99v-222h62v-73h-62v-71
h-90v71h-181zM672 144v125l-103 -125h103zM280 0h-105l462 648h104z" />
    <glyph glyph-name="questiondown" unicode="&#xbf;" horiz-adv-x="487" 
d="M208 286h99q3 -18 3 -38q0 -93 -80 -150l-46 -33q-47 -34 -47 -88q0 -42 28 -71t80 -29q54 0 83 34t29 82q0 27 -6 45l114 -12q5 -17 5 -46q0 -82 -59.5 -145t-165.5 -63t-167 59.5t-61 140.5q0 106 99 176l43 30q49 35 49 98v10zM184 429q0 30 21 51.5t52 21.5
q30 0 51.5 -21.5t21.5 -51.5t-21.5 -51.5t-51.5 -21.5q-31 0 -52 21.5t-21 51.5z" />
    <glyph glyph-name="Agrave" unicode="&#xc0;" horiz-adv-x="711" 
d="M570 0l-67 178h-300l-66 -178h-127l276 709h139l276 -709h-131zM353 579l-108 -290h216zM306 759l-143 124h148l103 -124h-108z" />
    <glyph glyph-name="Aacute" unicode="&#xc1;" horiz-adv-x="711" 
d="M570 0l-67 178h-300l-66 -178h-127l276 709h139l276 -709h-131zM353 579l-108 -290h216zM546 883l-142 -124h-109l102 124h149z" />
    <glyph glyph-name="Acircumflex" unicode="&#xc2;" horiz-adv-x="711" 
d="M570 0l-67 178h-300l-66 -178h-127l276 709h139l276 -709h-131zM353 579l-108 -290h216zM278 759h-107l116 124h129l119 -124h-110l-75 64z" />
    <glyph glyph-name="Atilde" unicode="&#xc3;" horiz-adv-x="711" 
d="M570 0l-67 178h-300l-66 -178h-127l276 709h139l276 -709h-131zM353 579l-108 -290h216zM517 886v-23q0 -53 -28 -81.5t-71 -28.5q-35 0 -73 23l-10 7q-27 17 -45 17q-12 0 -21 -8.5t-9 -24.5v-10h-75v22q0 53 28 81.5t72 28.5q36 0 74 -23l10 -6q30 -17 43 -17
q31 0 31 33v10h74z" />
    <glyph glyph-name="Adieresis" unicode="&#xc4;" horiz-adv-x="711" 
d="M134 821q0 28 19 47.5t47 19.5t47.5 -19.5t19.5 -47.5t-19.5 -47t-47.5 -19t-47 19t-19 47zM441 821q0 28 18.5 47.5t46.5 19.5t47.5 -19.5t19.5 -47.5t-19.5 -47t-47.5 -19t-46.5 19t-18.5 47zM570 0l-67 178h-300l-66 -178h-127l276 709h139l276 -709h-131zM353 579
l-108 -290h216z" />
    <glyph glyph-name="Aring" unicode="&#xc5;" horiz-adv-x="711" 
d="M353 579l-108 -290h216zM353 709q21 0 35.5 14t14.5 36q0 21 -14.5 35t-35.5 14t-35.5 -14t-14.5 -35q0 -22 14.5 -36t35.5 -14zM483 759q0 -56 -42 -93l260 -666h-131l-67 178h-300l-66 -178h-127l258 663q-44 37 -44 96q0 53 38 89.5t91 36.5t91.5 -36.5t38.5 -89.5z
" />
    <glyph glyph-name="AE" unicode="&#xc6;" horiz-adv-x="1044" 
d="M986 0h-438v180h-277l-115 -180h-149l470 709h509v-112h-318v-188h288v-109h-288v-188h318v-112zM337 283h211v328z" />
    <glyph glyph-name="Ccedilla" unicode="&#xc7;" horiz-adv-x="758" 
d="M370 -105l-35 43l31 49q-138 12 -231 111t-93 256q0 166 106 268t251 102q128 0 210.5 -65t108.5 -165l-113 -38q-17 69 -69 112t-137 43q-95 0 -164.5 -67.5t-69.5 -189.5q0 -119 69 -186.5t166 -67.5q83 0 137 45t74 111l110 -36q-24 -90 -96 -155.5t-181 -76.5
l-22 -35q43 -1 70 -24t27 -60q0 -39 -30.5 -65.5t-92.5 -26.5q-37 0 -68 14t-47 34l41 50q35 -35 73 -35q44 0 44 30q0 13 -11 21.5t-30 8.5q-15 0 -28 -5z" />
    <glyph glyph-name="Egrave" unicode="&#xc8;" horiz-adv-x="582" 
d="M280 759l-143 124h148l103 -124h-108zM523 0h-438v709h438v-112h-318v-188h288v-109h-288v-188h318v-112z" />
    <glyph glyph-name="Eacute" unicode="&#xc9;" horiz-adv-x="582" 
d="M474 883l-142 -124h-109l102 124h149zM523 0h-438v709h438v-112h-318v-188h288v-109h-288v-188h318v-112z" />
    <glyph glyph-name="Ecircumflex" unicode="&#xca;" horiz-adv-x="582" 
d="M228 759h-107l116 124h129l119 -124h-110l-75 64zM523 0h-438v709h438v-112h-318v-188h288v-109h-288v-188h318v-112z" />
    <glyph glyph-name="Edieresis" unicode="&#xcb;" horiz-adv-x="582" 
d="M125 821q0 28 19 47.5t47 19.5t47.5 -19.5t19.5 -47.5t-19.5 -47t-47.5 -19t-47 19t-19 47zM353 821q0 28 19 47.5t47 19.5t47 -19.5t19 -47.5t-19 -47t-47 -19t-47 19t-19 47zM523 0h-438v709h438v-112h-318v-188h288v-109h-288v-188h318v-112z" />
    <glyph glyph-name="Igrave" unicode="&#xcc;" horiz-adv-x="292" 
d="M207 0h-122v709h122v-709zM96 759l-143 124h148l103 -124h-108z" />
    <glyph glyph-name="Iacute" unicode="&#xcd;" horiz-adv-x="292" 
d="M207 0h-122v709h122v-709zM339 883l-142 -124h-109l102 124h149z" />
    <glyph glyph-name="Icircumflex" unicode="&#xce;" horiz-adv-x="292" 
d="M207 0h-122v709h122v-709zM76 759h-107l116 124h129l119 -124h-110l-75 64z" />
    <glyph glyph-name="Idieresis" unicode="&#xcf;" horiz-adv-x="292" 
d="M-2 821q0 26 18 44.5t44 18.5t44.5 -18.5t18.5 -44.5t-18.5 -44.5t-44.5 -18.5t-44 18.5t-18 44.5zM171 821q0 26 18 44.5t45 18.5q26 0 44 -18.5t18 -44.5t-18 -44.5t-44 -18.5q-27 0 -45 18.5t-18 44.5zM207 0h-122v709h122v-709z" />
    <glyph glyph-name="Eth" unicode="&#xd0;" horiz-adv-x="740" 
d="M349 0h-250v319h-82v93h82v297h251q150 0 247.5 -95t97.5 -261q0 -165 -98 -259t-248 -94zM219 110h126q98 0 161.5 62.5t63.5 180.5q0 119 -63 182.5t-161 63.5h-127v-187h131v-93h-131v-209z" />
    <glyph glyph-name="Ntilde" unicode="&#xd1;" horiz-adv-x="765" 
d="M550 886v-23q0 -53 -28 -81.5t-71 -28.5q-35 0 -73 23l-10 7q-27 17 -45 17q-12 0 -21 -8.5t-9 -24.5v-10h-75v22q0 53 28 81.5t72 28.5q36 0 74 -23l10 -6q30 -17 43 -17q31 0 31 33v10h74zM680 0h-125l-350 537v-537h-120v709h153l322 -503v503h120v-709z" />
    <glyph glyph-name="Ograve" unicode="&#xd2;" horiz-adv-x="805" 
d="M353 759l-143 124h148l103 -124h-108zM165 355q0 -121 70 -188.5t167 -67.5t167.5 67.5t70.5 188.5t-70.5 188.5t-167.5 67.5t-167 -67.5t-70 -188.5zM42 355q0 112 51.5 197.5t132.5 128.5t176 43t176 -43t133 -128.5t52 -197.5t-52 -198t-133 -129t-176 -43t-176 43
t-132.5 129t-51.5 198z" />
    <glyph glyph-name="Oacute" unicode="&#xd3;" horiz-adv-x="805" 
d="M590 883l-142 -124h-109l102 124h149zM165 355q0 -121 70 -188.5t167 -67.5t167.5 67.5t70.5 188.5t-70.5 188.5t-167.5 67.5t-167 -67.5t-70 -188.5zM42 355q0 112 51.5 197.5t132.5 128.5t176 43t176 -43t133 -128.5t52 -197.5t-52 -198t-133 -129t-176 -43t-176 43
t-132.5 129t-51.5 198z" />
    <glyph glyph-name="Ocircumflex" unicode="&#xd4;" horiz-adv-x="805" 
d="M328 759h-107l116 124h129l119 -124h-110l-75 64zM165 355q0 -121 70 -188.5t167 -67.5t167.5 67.5t70.5 188.5t-70.5 188.5t-167.5 67.5t-167 -67.5t-70 -188.5zM42 355q0 112 51.5 197.5t132.5 128.5t176 43t176 -43t133 -128.5t52 -197.5t-52 -198t-133 -129t-176 -43
t-176 43t-132.5 129t-51.5 198z" />
    <glyph glyph-name="Otilde" unicode="&#xd5;" horiz-adv-x="805" 
d="M569 887v-23q0 -53 -28 -81.5t-71 -28.5q-35 0 -73 23l-10 7q-27 17 -45 17q-12 0 -21 -8.5t-9 -24.5v-10h-75v22q0 53 28 81.5t72 28.5q36 0 74 -23l10 -6q30 -17 43 -17q31 0 31 33v10h74zM165 355q0 -121 70 -188.5t167 -67.5t167.5 67.5t70.5 188.5t-70.5 188.5
t-167.5 67.5t-167 -67.5t-70 -188.5zM42 355q0 112 51.5 197.5t132.5 128.5t176 43t176 -43t133 -128.5t52 -197.5t-52 -198t-133 -129t-176 -43t-176 43t-132.5 129t-51.5 198z" />
    <glyph glyph-name="Odieresis" unicode="&#xd6;" horiz-adv-x="805" 
d="M175 821q0 28 19 47.5t47 19.5t47.5 -19.5t19.5 -47.5t-19.5 -47t-47.5 -19t-47 19t-19 47zM498 821q0 28 19 47.5t47 19.5t47.5 -19.5t19.5 -47.5t-19.5 -47t-47.5 -19t-47 19t-19 47zM165 355q0 -121 70 -188.5t167 -67.5t167.5 67.5t70.5 188.5t-70.5 188.5
t-167.5 67.5t-167 -67.5t-70 -188.5zM42 355q0 112 51.5 197.5t132.5 128.5t176 43t176 -43t133 -128.5t52 -197.5t-52 -198t-133 -129t-176 -43t-176 43t-132.5 129t-51.5 198z" />
    <glyph glyph-name="multiply" unicode="&#xd7;" horiz-adv-x="548" 
d="M441 51l-167 171l-167 -171l-69 69l168 172l-167 171l69 69l166 -171l166 171l69 -69l-167 -171l168 -172z" />
    <glyph glyph-name="Oslash" unicode="&#xd8;" horiz-adv-x="805" 
d="M42 355q0 112 51.5 197.5t132.5 128.5t176 43q98 0 186 -50l71 91l78 -60l-72 -92q98 -103 98 -258q0 -112 -52 -198t-133 -129t-176 -43q-101 0 -185 48l-68 -88l-80 59l71 91q-98 103 -98 260zM165 355q0 -99 49 -164l303 391q-53 29 -115 29q-97 0 -167 -67.5
t-70 -188.5zM640 355q0 94 -48 162l-303 -391q52 -27 113 -27q97 0 167.5 67.5t70.5 188.5z" />
    <glyph glyph-name="Ugrave" unicode="&#xd9;" horiz-adv-x="683" 
d="M307 759l-143 124h148l103 -124h-108zM341 -15q-116 0 -190 69t-74 193v462h119v-455q0 -74 38.5 -114.5t106.5 -40.5q69 0 107 40t38 115v455h120v-462q0 -124 -74.5 -193t-190.5 -69z" />
    <glyph glyph-name="Uacute" unicode="&#xda;" horiz-adv-x="683" 
d="M513 883l-142 -124h-109l102 124h149zM341 -15q-116 0 -190 69t-74 193v462h119v-455q0 -74 38.5 -114.5t106.5 -40.5q69 0 107 40t38 115v455h120v-462q0 -124 -74.5 -193t-190.5 -69z" />
    <glyph glyph-name="Ucircumflex" unicode="&#xdb;" horiz-adv-x="683" 
d="M267 759h-107l116 124h129l119 -124h-110l-75 64zM341 -15q-116 0 -190 69t-74 193v462h119v-455q0 -74 38.5 -114.5t106.5 -40.5q69 0 107 40t38 115v455h120v-462q0 -124 -74.5 -193t-190.5 -69z" />
    <glyph glyph-name="Udieresis" unicode="&#xdc;" horiz-adv-x="683" 
d="M158 821q0 28 19 47.5t47 19.5t47 -19.5t19 -47.5t-19 -47t-47 -19t-47 19t-19 47zM394 821q0 28 19 47.5t47 19.5t47 -19.5t19 -47.5t-19 -47t-47 -19t-47 19t-19 47zM341 -15q-116 0 -190 69t-74 193v462h119v-455q0 -74 38.5 -114.5t106.5 -40.5q69 0 107 40t38 115
v455h120v-462q0 -124 -74.5 -193t-190.5 -69z" />
    <glyph glyph-name="Yacute" unicode="&#xdd;" horiz-adv-x="638" 
d="M258 300l-248 409h142l170 -297l171 297h135l-250 -409v-300h-120v300zM494 883l-142 -124h-109l102 124h149z" />
    <glyph glyph-name="Thorn" unicode="&#xde;" horiz-adv-x="599" 
d="M205 251h125q57 0 89.5 29.5t32.5 79.5q0 52 -32.5 82t-89.5 30h-125v-221zM343 147h-138v-147h-120v709h120v-133h137q100 0 166 -61.5t66 -153.5t-65.5 -153t-165.5 -61z" />
    <glyph glyph-name="germandbls" unicode="&#xdf;" horiz-adv-x="583" 
d="M381 343q1 -15 10 -23.5t31 -17.5l33 -15q48 -21 78 -60.5t30 -90.5q0 -58 -44.5 -104.5t-126.5 -46.5t-124 44.5t-43 97.5l96 22q1 -27 18 -50t53 -23q29 0 45 16t16 36q0 41 -50 63l-32 14q-30 13 -50.5 26t-38.5 40.5t-18 63.5q0 71 65 113l25 17q53 33 53 77
q0 34 -26.5 57t-75.5 23t-82.5 -36t-33.5 -104v-482h-114v489q0 111 66 173t164 62q97 0 157 -51t60 -126q0 -92 -88 -149l-24 -15q-29 -17 -29 -40z" />
    <glyph glyph-name="agrave" unicode="&#xe0;" horiz-adv-x="532" 
d="M45 132q0 62 40.5 99.5t106.5 47.5l125 19q36 5 36 35q0 33 -23 53.5t-69 20.5q-44 0 -70 -24.5t-30 -63.5l-106 24q7 66 63 112.5t142 46.5q106 0 156.5 -51t50.5 -131v-242q0 -48 6 -78h-108q-5 15 -5 62q-48 -77 -150 -77q-74 0 -119.5 43.5t-45.5 103.5zM232 76
q54 0 87.5 29.5t33.5 96.5v22l-127 -19q-65 -11 -65 -66q0 -26 19 -44.5t52 -18.5zM230 548l-132 148h139l88 -148h-95z" />
    <glyph glyph-name="aacute" unicode="&#xe1;" horiz-adv-x="532" 
d="M45 132q0 62 40.5 99.5t106.5 47.5l125 19q36 5 36 35q0 33 -23 53.5t-69 20.5q-44 0 -70 -24.5t-30 -63.5l-106 24q7 66 63 112.5t142 46.5q106 0 156.5 -51t50.5 -131v-242q0 -48 6 -78h-108q-5 15 -5 62q-48 -77 -150 -77q-74 0 -119.5 43.5t-45.5 103.5zM232 76
q54 0 87.5 29.5t33.5 96.5v22l-127 -19q-65 -11 -65 -66q0 -26 19 -44.5t52 -18.5zM422 696l-131 -148h-95l89 148h137z" />
    <glyph glyph-name="acircumflex" unicode="&#xe2;" horiz-adv-x="532" 
d="M45 132q0 62 40.5 99.5t106.5 47.5l125 19q36 5 36 35q0 33 -23 53.5t-69 20.5q-44 0 -70 -24.5t-30 -63.5l-106 24q7 66 63 112.5t142 46.5q106 0 156.5 -51t50.5 -131v-242q0 -48 6 -78h-108q-5 15 -5 62q-48 -77 -150 -77q-74 0 -119.5 43.5t-45.5 103.5zM232 76
q54 0 87.5 29.5t33.5 96.5v22l-127 -19q-65 -11 -65 -66q0 -26 19 -44.5t52 -18.5zM193 549h-97l107 143h121l108 -143h-99l-70 77z" />
    <glyph glyph-name="atilde" unicode="&#xe3;" horiz-adv-x="532" 
d="M45 132q0 62 40.5 99.5t106.5 47.5l125 19q36 5 36 35q0 33 -23 53.5t-69 20.5q-44 0 -70 -24.5t-30 -63.5l-106 24q7 66 63 112.5t142 46.5q106 0 156.5 -51t50.5 -131v-242q0 -48 6 -78h-108q-5 15 -5 62q-48 -77 -150 -77q-74 0 -119.5 43.5t-45.5 103.5zM232 76
q54 0 87.5 29.5t33.5 96.5v22l-127 -19q-65 -11 -65 -66q0 -26 19 -44.5t52 -18.5zM102 556l-1 18q0 56 28.5 85.5t74.5 29.5q33 0 70 -22l10 -6q28 -17 43 -17q31 0 31 44h76v-17q0 -56 -28.5 -86.5t-73.5 -30.5q-33 0 -71 23l-10 6q-27 16 -43 16q-30 0 -30 -43h-76z" />
    <glyph glyph-name="adieresis" unicode="&#xe4;" horiz-adv-x="532" 
d="M45 132q0 62 40.5 99.5t106.5 47.5l125 19q36 5 36 35q0 33 -23 53.5t-69 20.5q-44 0 -70 -24.5t-30 -63.5l-106 24q7 66 63 112.5t142 46.5q106 0 156.5 -51t50.5 -131v-242q0 -48 6 -78h-108q-5 15 -5 62q-48 -77 -150 -77q-74 0 -119.5 43.5t-45.5 103.5zM232 76
q54 0 87.5 29.5t33.5 96.5v22l-127 -19q-65 -11 -65 -66q0 -26 19 -44.5t52 -18.5zM99 625q0 27 18.5 46t45.5 19q28 0 47 -19t19 -46q0 -28 -19 -46.5t-47 -18.5q-27 0 -45.5 18.5t-18.5 46.5zM299 625q0 27 18.5 46t45.5 19t46 -19t19 -46q0 -28 -19 -46.5t-46 -18.5
t-45.5 18.5t-18.5 46.5z" />
    <glyph glyph-name="aring" unicode="&#xe5;" horiz-adv-x="532" 
d="M45 132q0 62 40.5 99.5t106.5 47.5l125 19q36 5 36 35q0 33 -23 53.5t-69 20.5q-44 0 -70 -24.5t-30 -63.5l-106 24q7 66 63 112.5t142 46.5q106 0 156.5 -51t50.5 -131v-242q0 -48 6 -78h-108q-5 15 -5 62q-48 -77 -150 -77q-74 0 -119.5 43.5t-45.5 103.5zM232 76
q54 0 87.5 29.5t33.5 96.5v22l-127 -19q-65 -11 -65 -66q0 -26 19 -44.5t52 -18.5zM373 648q0 -47 -33.5 -78.5t-80.5 -31.5q-46 0 -79.5 32t-33.5 78q0 47 33.5 79t79.5 32q47 0 80.5 -32t33.5 -79zM303 648q0 20 -12.5 32.5t-32.5 12.5q-18 0 -30.5 -13t-12.5 -32
t12.5 -31.5t30.5 -12.5q19 0 32 12.5t13 31.5z" />
    <glyph glyph-name="ae" unicode="&#xe6;" horiz-adv-x="872" 
d="M731 171l98 -32q-20 -66 -80 -110t-142 -44q-59 0 -110 25t-85 70q-63 -95 -188 -95q-83 0 -131 43t-48 104q0 62 40.5 99.5t106.5 47.5l132 19q37 5 37 35q0 32 -25.5 53.5t-71.5 21.5q-45 0 -74 -25t-33 -61l-102 21q6 66 66.5 112.5t143.5 46.5q114 0 168 -71
q68 71 165 71q111 0 173.5 -68t62.5 -185q0 -19 -2 -37h-358q2 -56 40.5 -91.5t93.5 -35.5q93 0 123 86zM236 76q51 0 88 30t37 95v23l-135 -19q-65 -9 -65 -68q0 -25 20 -43t55 -18zM477 297h241q-2 46 -33 77t-88 31q-52 0 -84.5 -32.5t-35.5 -75.5z" />
    <glyph glyph-name="ccedilla" unicode="&#xe7;" horiz-adv-x="541" 
d="M255 -106l-35 43l33 51q-94 12 -155 83.5t-61 172.5q0 112 71.5 185t177.5 73q91 0 148.5 -47t74.5 -113l-104 -38q-10 38 -38.5 64.5t-79.5 26.5q-56 0 -95 -40.5t-39 -110.5q0 -71 39.5 -112t96.5 -41q51 0 81.5 27.5t40.5 62.5l102 -37q-18 -57 -64.5 -101.5
t-118.5 -54.5l-23 -36q43 -1 70 -24t27 -60q0 -39 -30.5 -65.5t-92.5 -26.5q-37 0 -68 14t-47 34l41 50q35 -35 73 -35q44 0 44 30q0 13 -11 21.5t-30 8.5q-15 0 -28 -5z" />
    <glyph glyph-name="egrave" unicode="&#xe8;" horiz-adv-x="548" 
d="M156 297h239q-2 46 -32.5 77t-87.5 31q-52 0 -84 -32.5t-35 -75.5zM408 170l98 -31q-21 -67 -78.5 -110.5t-141.5 -43.5q-104 0 -176.5 71t-72.5 190q0 112 70.5 184t166.5 72q112 0 175 -68.5t63 -184.5q0 -31 -3 -37h-356q2 -55 40.5 -91t92.5 -36q94 0 122 85z
M244 548l-132 148h139l88 -148h-95z" />
    <glyph glyph-name="eacute" unicode="&#xe9;" horiz-adv-x="548" 
d="M448 696l-131 -148h-95l89 148h137zM156 297h239q-2 46 -32.5 77t-87.5 31q-52 0 -84 -32.5t-35 -75.5zM408 170l98 -31q-21 -67 -78.5 -110.5t-141.5 -43.5q-104 0 -176.5 71t-72.5 190q0 112 70.5 184t166.5 72q112 0 175 -68.5t63 -184.5q0 -31 -3 -37h-356
q2 -55 40.5 -91t92.5 -36q94 0 122 85z" />
    <glyph glyph-name="ecircumflex" unicode="&#xea;" horiz-adv-x="548" 
d="M210 549h-97l107 143h121l108 -143h-99l-70 77zM156 297h239q-2 46 -32.5 77t-87.5 31q-52 0 -84 -32.5t-35 -75.5zM408 170l98 -31q-21 -67 -78.5 -110.5t-141.5 -43.5q-104 0 -176.5 71t-72.5 190q0 112 70.5 184t166.5 72q112 0 175 -68.5t63 -184.5q0 -31 -3 -37
h-356q2 -55 40.5 -91t92.5 -36q94 0 122 85z" />
    <glyph glyph-name="edieresis" unicode="&#xeb;" horiz-adv-x="548" 
d="M115 625q0 27 18.5 46t45.5 19q28 0 47 -19t19 -46q0 -28 -19 -46.5t-47 -18.5q-27 0 -45.5 18.5t-18.5 46.5zM315 625q0 27 18.5 46t45.5 19t46 -19t19 -46q0 -28 -19 -46.5t-46 -18.5t-45.5 18.5t-18.5 46.5zM156 297h239q-2 46 -32.5 77t-87.5 31q-52 0 -84 -32.5
t-35 -75.5zM408 170l98 -31q-21 -67 -78.5 -110.5t-141.5 -43.5q-104 0 -176.5 71t-72.5 190q0 112 70.5 184t166.5 72q112 0 175 -68.5t63 -184.5q0 -31 -3 -37h-356q2 -55 40.5 -91t92.5 -36q94 0 122 85z" />
    <glyph glyph-name="igrave" unicode="&#xec;" horiz-adv-x="265" 
d="M190 0h-115v487h115v-487zM93 548l-132 148h139l88 -148h-95z" />
    <glyph glyph-name="iacute" unicode="&#xed;" horiz-adv-x="265" 
d="M307 696l-131 -148h-95l89 148h137zM190 0h-115v487h115v-487z" />
    <glyph glyph-name="icircumflex" unicode="&#xee;" horiz-adv-x="265" 
d="M62 549h-97l107 143h121l108 -143h-99l-70 77zM190 0h-115v487h115v-487z" />
    <glyph glyph-name="idieresis" unicode="&#xef;" horiz-adv-x="265" 
d="M-10 625q0 26 17.5 44t43.5 18t44 -18t18 -44t-18 -43.5t-44 -17.5t-43.5 17.5t-17.5 43.5zM152 625q0 26 17.5 44t43.5 18t44 -18t18 -44t-18 -43.5t-44 -17.5t-43.5 17.5t-17.5 43.5zM190 0h-115v487h115v-487z" />
    <glyph glyph-name="eth" unicode="&#xf0;" horiz-adv-x="576" 
d="M495 629l-78 -35q123 -128 123 -324q0 -123 -67 -203.5t-185 -80.5q-109 0 -180 69t-71 173q0 108 71 171.5t165 63.5q89 0 127 -44q-25 74 -85 129l-135 -61l-31 72l92 42q-44 25 -113 46l36 89q105 -26 187 -85l112 51zM288 89q57 0 96 37.5t39 102.5q0 66 -39 103
t-96 37q-56 0 -96 -37.5t-40 -102.5t40 -102.5t96 -37.5z" />
    <glyph glyph-name="ntilde" unicode="&#xf1;" horiz-adv-x="574" 
d="M191 281v-281h-116v487h113v-65q23 40 61.5 59.5t82.5 19.5q86 0 131 -54t45 -139v-308h-116v288q0 49 -24 78.5t-76 29.5q-48 0 -74.5 -32.5t-26.5 -82.5zM133 556l-1 18q0 56 28.5 85.5t74.5 29.5q33 0 70 -22l10 -6q28 -17 43 -17q31 0 31 44h76v-17
q0 -56 -28.5 -86.5t-73.5 -30.5q-33 0 -71 23l-10 6q-27 16 -43 16q-30 0 -30 -43h-76z" />
    <glyph glyph-name="ograve" unicode="&#xf2;" horiz-adv-x="579" 
d="M289 89q57 0 96.5 41t39.5 114q0 72 -39.5 112.5t-96.5 40.5t-96.5 -40.5t-39.5 -112.5t39.5 -113.5t96.5 -41.5zM289 502q110 0 181.5 -73t71.5 -185t-71.5 -185.5t-181.5 -73.5q-109 0 -180.5 73.5t-71.5 185.5t71.5 185t180.5 73zM247 548l-132 148h139l88 -148h-95z
" />
    <glyph glyph-name="oacute" unicode="&#xf3;" horiz-adv-x="579" 
d="M458 696l-131 -148h-95l89 148h137zM289 89q57 0 96.5 41t39.5 114q0 72 -39.5 112.5t-96.5 40.5t-96.5 -40.5t-39.5 -112.5t39.5 -113.5t96.5 -41.5zM289 502q110 0 181.5 -73t71.5 -185t-71.5 -185.5t-181.5 -73.5q-109 0 -180.5 73.5t-71.5 185.5t71.5 185t180.5 73z
" />
    <glyph glyph-name="ocircumflex" unicode="&#xf4;" horiz-adv-x="579" 
d="M220 549h-97l107 143h121l108 -143h-99l-70 77zM289 89q57 0 96.5 41t39.5 114q0 72 -39.5 112.5t-96.5 40.5t-96.5 -40.5t-39.5 -112.5t39.5 -113.5t96.5 -41.5zM289 502q110 0 181.5 -73t71.5 -185t-71.5 -185.5t-181.5 -73.5q-109 0 -180.5 73.5t-71.5 185.5t71.5 185
t180.5 73z" />
    <glyph glyph-name="otilde" unicode="&#xf5;" horiz-adv-x="579" 
d="M289 89q57 0 96.5 41t39.5 114q0 72 -39.5 112.5t-96.5 40.5t-96.5 -40.5t-39.5 -112.5t39.5 -113.5t96.5 -41.5zM289 502q110 0 181.5 -73t71.5 -185t-71.5 -185.5t-181.5 -73.5q-109 0 -180.5 73.5t-71.5 185.5t71.5 185t180.5 73zM126 556l-1 18q0 56 28.5 85.5
t74.5 29.5q33 0 70 -22l10 -6q28 -17 43 -17q31 0 31 44h76v-17q0 -56 -28.5 -86.5t-73.5 -30.5q-33 0 -71 23l-10 6q-27 16 -43 16q-30 0 -30 -43h-76z" />
    <glyph glyph-name="odieresis" unicode="&#xf6;" horiz-adv-x="579" 
d="M124 625q0 27 18.5 46t45.5 19q28 0 47 -19t19 -46q0 -28 -19 -46.5t-47 -18.5q-27 0 -45.5 18.5t-18.5 46.5zM324 625q0 27 18.5 46t45.5 19t46 -19t19 -46q0 -28 -19 -46.5t-46 -18.5t-45.5 18.5t-18.5 46.5zM289 89q57 0 96.5 41t39.5 114q0 72 -39.5 112.5
t-96.5 40.5t-96.5 -40.5t-39.5 -112.5t39.5 -113.5t96.5 -41.5zM289 502q110 0 181.5 -73t71.5 -185t-71.5 -185.5t-181.5 -73.5q-109 0 -180.5 73.5t-71.5 185.5t71.5 185t180.5 73z" />
    <glyph glyph-name="divide" unicode="&#xf7;" horiz-adv-x="578" 
d="M215 111q0 29 21.5 50t50.5 21q30 0 51 -21t21 -50t-21 -50.5t-51 -21.5q-29 0 -50.5 21.5t-21.5 50.5zM215 472q0 29 21.5 50.5t50.5 21.5q30 0 51 -21.5t21 -50.5t-21 -50.5t-51 -21.5q-29 0 -50.5 21.5t-21.5 50.5zM52 242v99h474v-99h-474z" />
    <glyph glyph-name="oslash" unicode="&#xf8;" horiz-adv-x="579" 
d="M289 502q71 0 129 -33l52 65l62 -51l-52 -65q62 -72 62 -174q0 -112 -71.5 -185.5t-181.5 -73.5q-70 0 -126 32l-50 -63l-63 51l50 63q-63 71 -63 176q0 112 71.5 185t180.5 73zM153 244q0 -49 19 -85l178 224q-30 14 -61 14q-57 0 -96.5 -40.5t-39.5 -112.5zM289 89
q57 0 96.5 41t39.5 114q0 46 -18 82l-177 -224q26 -13 59 -13z" />
    <glyph glyph-name="ugrave" unicode="&#xf9;" horiz-adv-x="577" 
d="M392 54q-17 -32 -55.5 -50t-82.5 -18q-85 0 -134.5 55t-49.5 139v307h116v-286q0 -49 24 -80t74 -31q49 0 75.5 30t26.5 79v288h116v-398q0 -44 5 -89h-111q-4 22 -4 54zM257 548l-132 148h139l88 -148h-95z" />
    <glyph glyph-name="uacute" unicode="&#xfa;" horiz-adv-x="577" 
d="M435 696l-131 -148h-95l89 148h137zM392 54q-17 -32 -55.5 -50t-82.5 -18q-85 0 -134.5 55t-49.5 139v307h116v-286q0 -49 24 -80t74 -31q49 0 75.5 30t26.5 79v288h116v-398q0 -44 5 -89h-111q-4 22 -4 54z" />
    <glyph glyph-name="ucircumflex" unicode="&#xfb;" horiz-adv-x="577" 
d="M216 549h-97l107 143h121l108 -143h-99l-70 77zM392 54q-17 -32 -55.5 -50t-82.5 -18q-85 0 -134.5 55t-49.5 139v307h116v-286q0 -49 24 -80t74 -31q49 0 75.5 30t26.5 79v288h116v-398q0 -44 5 -89h-111q-4 22 -4 54z" />
    <glyph glyph-name="udieresis" unicode="&#xfc;" horiz-adv-x="577" 
d="M122 625q0 27 18.5 46t45.5 19q28 0 47 -19t19 -46q0 -28 -19 -46.5t-47 -18.5q-27 0 -45.5 18.5t-18.5 46.5zM322 625q0 27 18.5 46t45.5 19t46 -19t19 -46q0 -28 -19 -46.5t-46 -18.5t-45.5 18.5t-18.5 46.5zM392 54q-17 -32 -55.5 -50t-82.5 -18q-85 0 -134.5 55
t-49.5 139v307h116v-286q0 -49 24 -80t74 -31q49 0 75.5 30t26.5 79v288h116v-398q0 -44 5 -89h-111q-4 22 -4 54z" />
    <glyph glyph-name="yacute" unicode="&#xfd;" horiz-adv-x="543" 
d="M223 -197h-124l117 255l-208 429h131l140 -308l131 308h123zM431 696l-131 -148h-95l89 148h137z" />
    <glyph glyph-name="thorn" unicode="&#xfe;" horiz-adv-x="604" 
d="M190 -190h-115v914h116v-297q21 31 60.5 51t90.5 20q105 0 165 -71.5t60 -182.5t-63 -183.5t-166 -72.5q-50 0 -89 19t-59 48v-245zM451 244q0 68 -36 109.5t-95 41.5q-58 0 -94.5 -41.5t-36.5 -109.5q0 -69 36.5 -111t94.5 -42t94.5 42t36.5 111z" />
    <glyph glyph-name="ydieresis" unicode="&#xff;" horiz-adv-x="543" 
d="M223 -197h-124l117 255l-208 429h131l140 -308l131 308h123zM108 625q0 27 18.5 46t45.5 19q28 0 47 -19t19 -46q0 -28 -19 -46.5t-47 -18.5q-27 0 -45.5 18.5t-18.5 46.5zM308 625q0 27 18.5 46t45.5 19t46 -19t19 -46q0 -28 -19 -46.5t-46 -18.5t-45.5 18.5t-18.5 46.5
z" />
    <glyph glyph-name="dotlessi" unicode="&#x131;" horiz-adv-x="265" 
d="M190 0h-115v487h115v-487z" />
    <glyph glyph-name="Lslash" unicode="&#x141;" horiz-adv-x="572" 
d="M547 0h-445v273l-94 -42v100l94 42v336h120v-282l159 71v-100l-159 -71v-213h325v-114z" />
    <glyph glyph-name="lslash" unicode="&#x142;" horiz-adv-x="309" 
d="M211 0h-116v264l-87 -39v101l87 39v359h116v-307l90 40v-100l-90 -41v-316z" />
    <glyph glyph-name="OE" unicode="&#x152;" horiz-adv-x="1136" 
d="M1078 0h-438v81q-93 -96 -238 -96q-95 0 -176 43t-132.5 129t-51.5 198t51.5 197.5t132.5 128.5t176 43q146 0 238 -97v82h437v-112h-317v-188h288v-109h-288v-188h318v-112zM165 355q0 -121 70 -188.5t167 -67.5t167.5 67.5t70.5 188.5t-70.5 188.5t-167.5 67.5
t-167 -67.5t-70 -188.5z" />
    <glyph glyph-name="oe" unicode="&#x153;" horiz-adv-x="937" 
d="M289 502q121 0 194 -87q33 40 80.5 63.5t99.5 23.5q112 0 175 -68.5t63 -184.5q0 -31 -3 -37h-356q2 -55 40.5 -91t92.5 -36q94 0 122 85l98 -31q-21 -67 -78.5 -110.5t-141.5 -43.5q-119 0 -192 88q-72 -88 -194 -88q-109 0 -180.5 73.5t-71.5 185.5t71.5 185t180.5 73z
M289 89q57 0 96.5 41t39.5 114q0 72 -39.5 112.5t-96.5 40.5t-96.5 -40.5t-39.5 -112.5t39.5 -113.5t96.5 -41.5zM545 297h239q-2 46 -32.5 77t-87.5 31q-52 0 -84 -32.5t-35 -75.5z" />
    <glyph glyph-name="Scaron" unicode="&#x160;" horiz-adv-x="599" 
d="M127 883h109l72 -65l75 65h108l-119 -124h-129zM551 543l-108 -34q-7 41 -41 75t-98 34q-53 0 -87.5 -30t-34.5 -72q0 -73 83 -91l102 -21q92 -18 142 -73t50 -131q0 -88 -67.5 -151.5t-183.5 -63.5q-125 0 -195 65.5t-79 152.5l112 32q6 -60 48 -101t114 -41
q62 0 95.5 27.5t33.5 70.5q0 35 -25 60.5t-70 35.5l-100 21q-83 17 -131.5 69t-48.5 130q0 89 71 153t170 64q113 0 173 -54.5t75 -126.5z" />
    <glyph glyph-name="scaron" unicode="&#x161;" horiz-adv-x="457" 
d="M61 694h98l70 -77l70 77h98l-106 -145h-124zM32 132l101 28q3 -35 29 -59t70 -24q34 0 53.5 16t19.5 40q0 42 -57 54l-72 16q-63 14 -97 52t-34 90q0 64 52 110.5t127 46.5q48 0 85 -14t57.5 -36.5t31.5 -43.5t14 -42l-98 -28q-4 28 -25.5 50.5t-64.5 22.5
q-30 0 -50 -16.5t-20 -39.5q0 -41 49 -51l74 -15q68 -15 104 -54t36 -94q0 -61 -48.5 -108.5t-135.5 -47.5q-50 0 -89.5 15t-62 38.5t-35 47t-14.5 46.5z" />
    <glyph glyph-name="Ydieresis" unicode="&#x178;" horiz-adv-x="638" 
d="M135 821q0 28 19 47.5t47 19.5t47 -19.5t19 -47.5t-19 -47t-47 -19t-47 19t-19 47zM374 821q0 28 19 47.5t47 19.5t47.5 -19.5t19.5 -47.5t-19.5 -47t-47.5 -19t-47 19t-19 47zM258 300l-248 409h142l170 -297l171 297h135l-250 -409v-300h-120v300z" />
    <glyph glyph-name="Zcaron" unicode="&#x17d;" horiz-adv-x="636" 
d="M143 883h109l72 -65l75 65h108l-119 -124h-129zM595 0h-553v118l393 478h-382v113h537v-114l-398 -481h403v-114z" />
    <glyph glyph-name="zcaron" unicode="&#x17e;" horiz-adv-x="474" 
d="M73 694h98l70 -77l70 77h98l-106 -145h-124zM436 0h-398v101l247 284h-242v102h388v-98l-250 -287h255v-102z" />
    <glyph glyph-name="florin" unicode="&#x192;" horiz-adv-x="498" 
d="M120 24l73 364h-103v99h123l21 101q16 76 65 114t112 38q43 0 82 -12v-101q-26 8 -57 8q-73 0 -90 -84l-13 -64h122v-99h-142l-81 -401q-15 -76 -64.5 -114t-112.5 -38q-44 0 -85 12v101q28 -7 61 -7q73 0 89 83z" />
    <glyph glyph-name="circumflex" unicode="&#x2c6;" horiz-adv-x="396" 
d="M127 549h-97l107 143h121l108 -143h-99l-70 77z" />
    <glyph glyph-name="caron" unicode="&#x2c7;" horiz-adv-x="396" 
d="M30 694h98l70 -77l70 77h98l-106 -145h-124z" />
    <glyph glyph-name="uni02C9" unicode="&#x2c9;" horiz-adv-x="338" 
d="M308 577h-278v90h278v-90z" />
    <glyph glyph-name="breve" unicode="&#x2d8;" horiz-adv-x="369" 
d="M184 547q-71 0 -111.5 43t-42.5 104h82q2 -25 19.5 -43t52.5 -18t53 18.5t20 42.5h82q-2 -61 -42.5 -104t-112.5 -43z" />
    <glyph glyph-name="dotaccent" unicode="&#x2d9;" horiz-adv-x="184" 
d="M20 622q0 30 21 51t51 21t51 -21t21 -51q0 -29 -21 -50t-51 -21t-51 21t-21 50z" />
    <glyph glyph-name="ring" unicode="&#x2da;" horiz-adv-x="287" 
d="M257 645q0 -47 -33.5 -78.5t-80.5 -31.5q-46 0 -79.5 32t-33.5 78q0 47 33.5 79t79.5 32q47 0 80.5 -32t33.5 -79zM187 645q0 19 -12.5 32t-32.5 13q-18 0 -30.5 -13t-12.5 -32t12.5 -31.5t30.5 -12.5q19 0 32 12.5t13 31.5z" />
    <glyph glyph-name="ogonek" unicode="&#x2db;" horiz-adv-x="228" 
d="M147 -220q-51 0 -85 28.5t-34 75.5q0 87 102 132l68 -16q-82 -39 -82 -95q0 -23 14.5 -34.5t36.5 -11.5q16 0 31 3v-74q-21 -8 -51 -8z" />
    <glyph glyph-name="tilde" unicode="&#x2dc;" horiz-adv-x="385" 
d="M27 556l-1 18q0 56 28.5 85.5t74.5 29.5q33 0 70 -22l10 -6q28 -17 43 -17q31 0 31 44h76v-17q0 -56 -28.5 -86.5t-73.5 -30.5q-33 0 -71 23l-10 6q-27 16 -43 16q-30 0 -30 -43h-76z" />
    <glyph glyph-name="hungarumlaut" unicode="&#x2dd;" horiz-adv-x="383" 
d="M199 696l-94 -148h-76l52 148h118zM354 696l-107 -148h-76l64 148h119z" />
    <glyph glyph-name="uni0394" unicode="&#x394;" horiz-adv-x="678" 
d="M0 0l274 709h129l275 -709h-678zM338 576l-171 -465h343z" />
    <glyph glyph-name="uni03A9" unicode="&#x3a9;" horiz-adv-x="788" 
d="M394 614q-90 0 -158 -60.5t-68 -162.5q0 -90 56 -150.5t131 -76.5v-164h-304v109h189q-81 32 -138 108t-57 179q0 148 103 238t246 90t246 -90t103 -238q0 -103 -57 -179t-138 -108h189v-109h-304v164q75 16 131 76.5t56 150.5q0 102 -68 162.5t-158 60.5z" />
    <glyph glyph-name="uni03BC" unicode="&#x3bc;" horiz-adv-x="584" 
d="M397 54q-17 -32 -55.5 -50t-82.5 -18q-38 0 -68 12v-188h-116v677h116v-286q0 -49 24 -80t74 -31q49 0 75.5 30t26.5 79v288h116v-398q0 -44 5 -89h-111q-4 22 -4 54z" />
    <glyph glyph-name="pi" unicode="&#x3c0;" horiz-adv-x="628" 
d="M582 5q-35 -13 -65 -13q-65 0 -98.5 37t-33.5 96v262h-147v-387h-115v387h-83v100h540v-100h-80v-248q0 -48 51 -48q19 0 31 4v-90z" />
    <glyph glyph-name="uni2007" unicode="&#x2007;" horiz-adv-x="619" 
 />
    <glyph glyph-name="uni2008" unicode="&#x2008;" horiz-adv-x="296" 
 />
    <glyph glyph-name="uni200B" unicode="&#x200b;" horiz-adv-x="0" 
 />
    <glyph glyph-name="endash" unicode="&#x2013;" horiz-adv-x="641" 
d="M577 242h-514v101h514v-101z" />
    <glyph glyph-name="emdash" unicode="&#x2014;" horiz-adv-x="1092" 
d="M1019 242h-946v101h946v-101z" />
    <glyph glyph-name="quoteleft" unicode="&#x2018;" horiz-adv-x="226" 
d="M190 509q0 -27 -21 -46.5t-52 -19.5q-35 0 -57.5 25t-22.5 66q0 85 44.5 130.5t99.5 50.5v-55q-31 -6 -54.5 -31.5t-24.5 -57.5q10 5 21 5q29 0 48 -18.5t19 -48.5z" />
    <glyph glyph-name="quoteright" unicode="&#x2019;" horiz-adv-x="230" 
d="M37 649q0 28 21 48t53 20q36 0 59.5 -26t23.5 -67q0 -88 -46 -134t-102 -52v55q31 6 55 32.5t25 59.5q-10 -5 -21 -5q-30 0 -49 19t-19 50z" />
    <glyph glyph-name="quotesinglbase" unicode="&#x201a;" horiz-adv-x="230" 
d="M37 65q0 28 21 48t53 20q36 0 59.5 -25.5t23.5 -67.5q0 -87 -46 -133.5t-102 -52.5v56q31 5 55 31.5t25 60.5q-5 -5 -21 -5q-30 0 -49 18.5t-19 49.5z" />
    <glyph glyph-name="quotedblleft" unicode="&#x201c;" horiz-adv-x="412" 
d="M375 512q0 -27 -21 -46.5t-52 -19.5q-35 0 -57.5 25t-22.5 66q0 85 45 130t99 51v-55q-30 -5 -53.5 -31t-24.5 -58q10 5 20 5q30 0 48.5 -18.5t18.5 -48.5zM190 512q0 -27 -21 -46.5t-52 -19.5q-35 0 -57.5 25t-22.5 66q0 85 44.5 130.5t99.5 50.5v-55q-31 -5 -54.5 -31
t-24.5 -58q10 5 21 5q29 0 48 -18.5t19 -48.5z" />
    <glyph glyph-name="quotedblright" unicode="&#x201d;" horiz-adv-x="411" 
d="M37 648q0 28 20.5 47.5t51.5 19.5q36 0 58.5 -25t22.5 -66q0 -85 -45 -130t-100 -51v54q32 6 55 31.5t24 58.5q-5 -5 -21 -5q-29 0 -47.5 18t-18.5 48zM221 648q0 28 21 47.5t52 19.5q35 0 57.5 -25t22.5 -66q0 -85 -44.5 -130t-99.5 -51v54q32 6 54.5 31.5t23.5 58.5
q-5 -5 -20 -5q-30 0 -48.5 18t-18.5 48z" />
    <glyph glyph-name="quotedblbase" unicode="&#x201e;" horiz-adv-x="411" 
d="M37 63q0 28 20.5 47.5t51.5 19.5q36 0 58.5 -25t22.5 -66q0 -85 -45 -130t-100 -51v54q32 6 55 31.5t24 58.5q-5 -5 -21 -5q-29 0 -47.5 18t-18.5 48zM221 63q0 28 21 47.5t52 19.5q35 0 57.5 -25t22.5 -66q0 -85 -44.5 -130t-99.5 -51v54q32 6 54.5 31.5t23.5 58.5
q-5 -5 -20 -5q-30 0 -48.5 18t-18.5 48z" />
    <glyph glyph-name="dagger" unicode="&#x2020;" horiz-adv-x="401" 
d="M250 162h-99v308h-124v94h124v145h99v-145h124v-94h-124v-308z" />
    <glyph glyph-name="daggerdbl" unicode="&#x2021;" horiz-adv-x="441" 
d="M47 239h124v231h-124v93h124v146h99v-146h124v-93h-124v-231h124v-93h-124v-146h-99v146h-124v93z" />
    <glyph glyph-name="bullet" unicode="&#x2022;" horiz-adv-x="542" 
d="M63 294q0 87 61 148t147 61t147 -61t61 -148q0 -85 -61.5 -146t-146.5 -61t-146.5 61t-61.5 146z" />
    <glyph glyph-name="ellipsis" unicode="&#x2026;" horiz-adv-x="926" 
d="M844 65q0 -30 -21 -51.5t-52 -21.5t-52.5 21.5t-21.5 51.5q0 31 21.5 52.5t52.5 21.5t52 -21.5t21 -52.5zM536 65q0 -30 -21 -51.5t-52 -21.5t-52.5 21.5t-21.5 51.5q0 31 21.5 52.5t52.5 21.5t52 -21.5t21 -52.5zM229 65q0 -30 -21.5 -51.5t-52.5 -21.5
q-30 0 -51.5 21.5t-21.5 51.5q0 31 21.5 52.5t51.5 21.5q31 0 52.5 -21.5t21.5 -52.5z" />
    <glyph glyph-name="perthousand" unicode="&#x2030;" horiz-adv-x="1070" 
d="M141 497q0 -33 20.5 -53.5t50.5 -20.5q31 0 51 20.5t20 53.5q0 32 -20 52.5t-51 20.5q-30 0 -50.5 -21t-20.5 -52zM49 497q0 67 48 113.5t115 46.5t115.5 -46.5t48.5 -113.5q0 -68 -48 -114.5t-116 -46.5q-67 0 -115 46.5t-48 114.5zM559 152q0 -32 20.5 -53t51.5 -21
t51 20.5t20 53.5q0 32 -20 52.5t-51 20.5q-30 0 -51 -21t-21 -52zM244 0h-105l462 648h104zM792 152q0 -33 20.5 -53.5t50.5 -20.5q31 0 51.5 20.5t20.5 53.5q0 31 -20.5 52t-51.5 21q-30 0 -50.5 -21t-20.5 -52zM467 152q0 67 48.5 113.5t115.5 46.5q72 0 116 -55
q44 55 116 55q67 0 116 -46.5t49 -113.5q0 -68 -48.5 -114.5t-116.5 -46.5q-72 0 -116 55q-44 -55 -117 -55q-67 0 -115 46.5t-48 114.5z" />
    <glyph glyph-name="guilsinglleft" unicode="&#x2039;" horiz-adv-x="293" 
d="M274 100h-111l-135 193l136 194h111l-134 -195z" />
    <glyph glyph-name="guilsinglright" unicode="&#x203a;" horiz-adv-x="293" 
d="M130 100h-111l133 192l-134 195h112l135 -194z" />
    <glyph glyph-name="uni2042" unicode="&#x2042;" horiz-adv-x="836" 
d="M458 708v-114l106 35l25 -76l-107 -35l69 -91l-64 -47l-71 93l-66 -92l-66 47l68 90l-107 35l25 76l105 -36v115h83zM248 317v-114l106 35l25 -76l-107 -35l69 -91l-64 -47l-71 93l-66 -92l-66 47l68 90l-107 35l25 76l105 -36v115h83zM672 317v-114l106 35l25 -76
l-107 -35l69 -91l-64 -47l-71 93l-66 -92l-66 47l68 90l-107 35l25 76l105 -36v115h83z" />
    <glyph glyph-name="fraction" unicode="&#x2044;" horiz-adv-x="566" 
d="M105 0h-105l462 648h104z" />
    <glyph glyph-name="uni2051" unicode="&#x2051;" horiz-adv-x="426" 
d="M254 708v-114l106 35l25 -76l-107 -35l69 -91l-64 -47l-71 93l-66 -92l-66 47l68 90l-107 35l25 76l105 -36v115h83zM254 319v-114l106 35l25 -76l-107 -35l69 -91l-64 -47l-71 93l-66 -92l-66 47l68 90l-107 35l25 76l105 -36v115h83z" />
    <glyph glyph-name="uni2070" unicode="&#x2070;" horiz-adv-x="431" 
d="M147 526q0 -114 68 -114t68 114q0 115 -68 115t-68 -115zM55 526q0 37 8 69t25.5 60.5t50 45t76.5 16.5q45 0 77.5 -17t50 -45.5t25.5 -60.5t8 -68q0 -35 -8 -66.5t-25 -60.5t-50 -46t-78 -17q-59 0 -96.5 30t-50.5 70t-13 90z" />
    <glyph glyph-name="uni2074" unicode="&#x2074;" horiz-adv-x="443" 
d="M55 414v88l172 207h99v-222h62v-73h-62v-71h-90v71h-181zM236 487v125l-103 -125h103z" />
    <glyph glyph-name="uni2075" unicode="&#x2075;" horiz-adv-x="404" 
d="M55 439l79 25q4 -24 22.5 -38t43.5 -14q27 0 43 14t16 39q0 28 -16.5 42t-43.5 14q-34 0 -58 -24l-74 24l47 188h214v-75h-158l-19 -73q25 25 72 25q57 0 91.5 -32t34.5 -87q0 -56 -39.5 -93.5t-109.5 -37.5q-56 0 -96 30t-49 73z" />
    <glyph glyph-name="uni2076" unicode="&#x2076;" horiz-adv-x="418" 
d="M347 699l-18 -68q-29 12 -64 12q-45 0 -77.5 -23.5t-41.5 -68.5q30 37 87 37q58 0 94 -32t36 -90t-43 -94.5t-109 -36.5q-65 0 -110.5 44.5t-45.5 123.5q0 97 58 155.5t146 58.5q49 0 88 -18zM151 464q0 -25 18 -40t43 -15t42.5 15t17.5 40t-18 40.5t-42 15.5
q-25 0 -43 -15.5t-18 -40.5z" />
    <glyph glyph-name="uni2077" unicode="&#x2077;" horiz-adv-x="413" 
d="M358 709v-77q-19 -14 -36.5 -32.5t-43 -53t-44 -87.5t-24.5 -116h-96q4 53 19.5 102.5t34 82t36.5 57.5t30 37l12 11h-191v76h303z" />
    <glyph glyph-name="uni2078" unicode="&#x2078;" horiz-adv-x="415" 
d="M208 562q23 0 36.5 12t13.5 31q0 17 -13 28.5t-37 11.5t-37.5 -11.5t-13.5 -28.5q0 -19 14 -31t37 -12zM208 408q30 0 45 12.5t15 33.5q0 19 -15.5 31.5t-44.5 12.5t-45 -12.5t-16 -31.5q0 -20 15.5 -33t45.5 -13zM208 335q-70 0 -110.5 30.5t-40.5 78.5q0 29 19.5 52.5
t51.5 34.5q-28 10 -44 32.5t-16 48.5q0 46 38.5 75.5t101.5 29.5t101 -29.5t38 -75.5q0 -26 -15.5 -48.5t-43.5 -32.5q32 -11 51.5 -34t19.5 -51q0 -49 -40 -80t-111 -31z" />
    <glyph glyph-name="uni2079" unicode="&#x2079;" horiz-adv-x="417" 
d="M74 352l17 70q35 -13 62 -13q48 0 81 22.5t40 69.5q-30 -37 -88 -37q-56 0 -93.5 33t-37.5 89q0 58 42.5 94.5t109.5 36.5q64 0 109.5 -43t45.5 -120q0 -103 -55 -161t-144 -58q-52 0 -89 17zM265 587q0 25 -17.5 40.5t-43.5 15.5q-25 0 -42.5 -15.5t-17.5 -40.5
t17.5 -40.5t42.5 -15.5q26 0 43.5 15.5t17.5 40.5z" />
    <glyph glyph-name="uni2080" unicode="&#x2080;" horiz-adv-x="431" 
d="M147 110q0 -114 68 -114t68 114q0 115 -68 115t-68 -115zM55 110q0 37 8 69t25.5 60.5t50 45t76.5 16.5q45 0 77.5 -17t50 -45.5t25.5 -60.5t8 -68q0 -35 -8 -66.5t-25 -60.5t-50 -46t-78 -17q-59 0 -96.5 30t-50.5 70t-13 90z" />
    <glyph glyph-name="uni2081" unicode="&#x2081;" horiz-adv-x="305" 
d="M223 -90h-91v233h-89v60q40 1 66 22.5t32 50.5h82v-366z" />
    <glyph glyph-name="uni2082" unicode="&#x2082;" horiz-adv-x="392" 
d="M146 134l-84 -1q-3 15 -3 30q0 51 37 86t101 35q63 0 100 -34.5t37 -84.5q0 -66 -75 -111l-71 -43q-17 -12 -20 -25h169v-76h-281v12q0 100 87 152l60 36q41 24 41 56q0 18 -13 31t-36 13q-24 0 -38 -14.5t-14 -37.5q0 -12 3 -24z" />
    <glyph glyph-name="uni2083" unicode="&#x2083;" horiz-adv-x="412" 
d="M55 12l80 24q4 -25 23 -41.5t46 -16.5t44 14t17 35q0 26 -17.5 38.5t-43.5 12.5q-16 0 -31 -6l-32 61l91 69h-164v75h279v-72l-94 -69q46 -5 74.5 -34t28.5 -76q0 -52 -41.5 -87.5t-109.5 -35.5q-63 0 -102.5 32t-47.5 77z" />
    <glyph glyph-name="uni2084" unicode="&#x2084;" horiz-adv-x="443" 
d="M55 -19v88l172 207h99v-222h62v-73h-62v-71h-90v71h-181zM236 54v125l-103 -125h103z" />
    <glyph glyph-name="uni2085" unicode="&#x2085;" horiz-adv-x="404" 
d="M55 6l79 25q4 -24 22.5 -38t43.5 -14q27 0 43 14t16 39q0 28 -16.5 42t-43.5 14q-34 0 -58 -24l-74 24l47 188h214v-75h-158l-19 -73q25 25 72 25q57 0 91.5 -32t34.5 -87q0 -56 -39.5 -93.5t-109.5 -37.5q-56 0 -96 30t-49 73z" />
    <glyph glyph-name="uni2086" unicode="&#x2086;" horiz-adv-x="418" 
d="M347 267l-18 -68q-29 12 -64 12q-45 0 -77.5 -23.5t-41.5 -68.5q30 37 87 37q58 0 94 -32t36 -90t-43 -94.5t-109 -36.5q-65 0 -110.5 44.5t-45.5 123.5q0 97 58 155.5t146 58.5q49 0 88 -18zM151 32q0 -25 18 -40t43 -15t42.5 15t17.5 40t-18 40.5t-42 15.5
q-25 0 -43 -15.5t-18 -40.5z" />
    <glyph glyph-name="uni2087" unicode="&#x2087;" horiz-adv-x="413" 
d="M358 276v-77q-19 -14 -36.5 -32.5t-43 -53t-44 -87.5t-24.5 -116h-96q4 53 19.5 102.5t34 82t36.5 57.5t30 36l12 12h-191v76h303z" />
    <glyph glyph-name="uni2088" unicode="&#x2088;" horiz-adv-x="415" 
d="M208 129q23 0 36.5 12t13.5 31q0 17 -13 28.5t-37 11.5t-37.5 -11.5t-13.5 -28.5q0 -19 14 -31t37 -12zM208 -25q30 0 45 12.5t15 33.5q0 19 -15.5 31.5t-44.5 12.5t-45 -12.5t-16 -31.5q0 -20 15.5 -33t45.5 -13zM208 -98q-70 0 -110.5 30.5t-40.5 78.5q0 29 19.5 52.5
t51.5 34.5q-28 10 -44 32.5t-16 48.5q0 46 38.5 75.5t101.5 29.5t101 -29.5t38 -75.5q0 -26 -15.5 -48.5t-43.5 -32.5q32 -11 51.5 -34t19.5 -51q0 -49 -40 -80t-111 -31z" />
    <glyph glyph-name="uni2089" unicode="&#x2089;" horiz-adv-x="417" 
d="M74 -80l17 70q35 -13 62 -13q48 0 81 22.5t40 69.5q-30 -37 -88 -37q-56 0 -93.5 33t-37.5 89q0 58 42.5 94.5t109.5 36.5q64 0 109.5 -43t45.5 -120q0 -103 -55 -161t-144 -58q-52 0 -89 17zM265 155q0 25 -17.5 40.5t-43.5 15.5q-25 0 -42.5 -15.5t-17.5 -40.5
t17.5 -40.5t42.5 -15.5q26 0 43.5 15.5t17.5 40.5z" />
    <glyph glyph-name="Euro" unicode="&#x20ac;" horiz-adv-x="683" 
d="M63 287h77q-2 18 -2 36q0 16 2 36h-77v87h94q35 102 121.5 159.5t190.5 57.5t171 -46l-46 -93q-48 35 -125 35q-60 0 -110 -28.5t-77 -84.5h275l-42 -87h-256q-2 -16 -2 -35q0 -23 2 -37h226l-41 -88h-161q27 -53 76 -80.5t109 -27.5q88 0 139 48l56 -86
q-80 -68 -195 -68q-104 0 -189.5 56.5t-120.5 157.5h-95v88z" />
    <glyph glyph-name="uni2113" unicode="&#x2113;" horiz-adv-x="419" 
d="M32 266q24 3 68 24v211q0 75 40 119t104 44q67 0 105 -41t38 -115q0 -76 -47 -151.5t-130 -128.5v-52q0 -39 20 -58.5t48 -19.5q56 0 90 27v-100q-3 -4 -11 -10t-32.5 -13t-56.5 -7q-80 0 -124 44t-44 117v22q-31 -10 -68 -16v104zM278 511q0 52 -33 52q-35 0 -35 -59
v-145q68 66 68 152z" />
    <glyph glyph-name="trademark" unicode="&#x2122;" horiz-adv-x="868" 
d="M332 632h-107v-288h-86v288h-107v77h300v-77zM808 344h-82v227l-95 -227h-64l-93 224v-224h-84v365h115l97 -232l95 232h111v-365z" />
    <glyph glyph-name="Omega" unicode="&#x2126;" horiz-adv-x="788" 
d="M394 614q-90 0 -158 -60.5t-68 -162.5q0 -90 56 -150.5t131 -76.5v-164h-304v109h189q-81 32 -138 108t-57 179q0 148 103 238t246 90t246 -90t103 -238q0 -103 -57 -179t-138 -108h189v-109h-304v164q75 16 131 76.5t56 150.5q0 102 -68 162.5t-158 60.5z" />
    <glyph glyph-name="uni2160" unicode="&#x2160;" horiz-adv-x="501" 
d="M451 648v-104h-141v-440h141v-104h-401v104h142v440h-142v104h401z" />
    <glyph glyph-name="uni2161" unicode="&#x2161;" horiz-adv-x="779" 
d="M729 104v-104h-679v104h138v440h-138v104h679v-104h-138v-440h138zM472 104v440h-165v-440h165z" />
    <glyph glyph-name="uni2162" unicode="&#x2162;" horiz-adv-x="1053" 
d="M1003 104v-104h-953v104h138v440h-138v104h953v-104h-138v-440h138zM746 104v440h-160v-440h160zM307 544v-440h160v440h-160z" />
    <glyph glyph-name="uni2163" unicode="&#x2163;" horiz-adv-x="1032" 
d="M982 104v-104h-932v104h131v440h-131v104h931v-104h-112l-146 -440h259zM299 544v-440h226l-146 440h-80zM626 155l122 389h-244z" />
    <glyph glyph-name="uni2164" unicode="&#x2164;" horiz-adv-x="806" 
d="M756 648v-104h-109l-146 -440h252v-104h-700v104h250l-147 440h-106v104h706zM404 155l122 389h-244z" />
    <glyph glyph-name="uni2165" unicode="&#x2165;" horiz-adv-x="1030" 
d="M980 104v-104h-930v104h256l-147 440h-109v104h930v-104h-131v-440h131zM652 544l-148 -440h227v440h-79zM407 155l123 389h-246z" />
    <glyph glyph-name="uni2166" unicode="&#x2166;" horiz-adv-x="1313" 
d="M1263 104v-104h-1213v104h255l-146 440h-109v104h1213v-104h-138v-440h138zM1007 104v440h-158v-440h158zM651 544l-148 -440h227v440h-79zM406 155l123 389h-245z" />
    <glyph glyph-name="uni2167" unicode="&#x2167;" horiz-adv-x="1570" 
d="M1520 104v-104h-1470v104h253l-143 440h-110v104h1470v-104h-134v-440h134zM644 544l-144 -440h226v440h-82zM1115 544v-440h153v440h-153zM845 544v-440h152v440h-152zM404 155l119 389h-239z" />
    <glyph glyph-name="uni2168" unicode="&#x2168;" horiz-adv-x="1004" 
d="M954 104v-104h-904v104h131v440h-131v104h903v-104h-104l-161 -226l155 -214h111zM544 319l-162 225h-83v-440h87zM521 544l95 -138l96 138h-191zM614 233l-91 -129h181z" />
    <glyph glyph-name="uni2169" unicode="&#x2169;" horiz-adv-x="774" 
d="M724 648v-104h-105l-161 -226l155 -214h111v-104h-674v104h107l158 215l-162 225h-103v104h674zM292 544l95 -138l96 138h-191zM385 233l-92 -129h182z" />
    <glyph glyph-name="uni216C" unicode="&#x216c;" horiz-adv-x="656" 
d="M606 287v-287h-556v104h123v440h-123v104h375v-104h-133v-440h199v183h115z" />
    <glyph glyph-name="uni216D" unicode="&#x216d;" horiz-adv-x="730" 
d="M680 239v-239h-117v64q-67 -79 -187 -79q-134 0 -230 93.5t-96 245.5q0 153 96 246.5t229 93.5q119 0 184 -75v61h117v-234h-117q-7 61 -53 101.5t-128 40.5q-88 0 -149.5 -60.5t-61.5 -173.5q0 -110 61 -170.5t151 -60.5q86 0 132 44.5t52 101.5h117z" />
    <glyph glyph-name="uni216E" unicode="&#x216e;" horiz-adv-x="739" 
d="M381 648q135 -2 221.5 -88.5t86.5 -236.5q0 -151 -88.5 -237t-226.5 -86h-324v104h128v440h-128v104h331zM297 104h76q85 0 140.5 57.5t55.5 161.5q0 106 -56.5 163.5t-143.5 57.5h-72v-440z" />
    <glyph glyph-name="uni216F" unicode="&#x216f;" horiz-adv-x="1059" 
d="M377 104v-104h-327v104h121v440h-121v104h288l189 -469l188 469h294v-104h-124v-440h124v-104h-331v104h91v374l-197 -475h-90l-195 474v-373h90z" />
    <glyph glyph-name="arrowleft" unicode="&#x2190;" horiz-adv-x="1046" 
d="M239 86l-244 206l244 208v-157h742v-101h-742v-156z" />
    <glyph glyph-name="arrowup" unicode="&#x2191;" horiz-adv-x="469" 
d="M252 800l215 -257h-165v-690h-100v690h-167z" />
    <glyph glyph-name="arrowright" unicode="&#x2192;" horiz-adv-x="1058" 
d="M1019 292l-274 -224v174h-716v100h716v175z" />
    <glyph glyph-name="arrowdown" unicode="&#x2193;" horiz-adv-x="465" 
d="M443 105l-224 -262l-225 262h174v686h101v-686h174z" />
    <glyph glyph-name="uni2196" unicode="&#x2196;" horiz-adv-x="875" 
d="M60 709h314l-121 -122l527 -526l-71 -71l-527 526l-122 -123v316z" />
    <glyph glyph-name="uni2197" unicode="&#x2197;" horiz-adv-x="764" 
d="M355 709h314v-316l-123 123l-526 -526l-71 71l527 526z" />
    <glyph glyph-name="uni2198" unicode="&#x2198;" horiz-adv-x="865" 
d="M770 0h-314l121 122l-527 526l71 71l526 -527l123 124v-316z" />
    <glyph glyph-name="uni2199" unicode="&#x2199;" horiz-adv-x="755" 
d="M354 0h-314v316l122 -124l527 527l71 -71l-527 -526z" />
    <glyph glyph-name="uni21A9" unicode="&#x21a9;" horiz-adv-x="848" 
d="M401 557v100h193q102 0 167.5 -61t65.5 -153q0 -90 -65 -152t-165 -62h-366v-156l-244 207l244 208v-158h362q58 0 95 32t37 81q0 52 -37.5 83t-97.5 31h-189z" />
    <glyph glyph-name="uni21B0" unicode="&#x21b0;" horiz-adv-x="791" 
d="M288 310l-245 207l245 207v-157h418v-567h-100v467h-318v-157z" />
    <glyph glyph-name="uni21B1" unicode="&#x21b1;" horiz-adv-x="736" 
d="M135 0h-100v567h452v157l244 -207l-244 -207v157h-352v-467z" />
    <glyph glyph-name="uni21B2" unicode="&#x21b2;" horiz-adv-x="766" 
d="M584 709h101v-567h-453v-157l-244 207l244 207v-157h352v467z" />
    <glyph glyph-name="uni21B3" unicode="&#x21b3;" horiz-adv-x="846" 
d="M531 399l244 -207l-244 -207v157h-453v567h101v-467h352v157z" />
    <glyph glyph-name="uni21B4" unicode="&#x21b4;" horiz-adv-x="806" 
d="M58 609v100h572v-484h157l-206 -241l-207 241h156v384h-472z" />
    <glyph glyph-name="uni21C6" unicode="&#x21c6;" horiz-adv-x="1139" 
d="M304 342l-244 207l244 208v-158h756v-101h-756v-156zM1084 166l-244 -207v157h-755v100h755v157z" />
    <glyph glyph-name="partialdiff" unicode="&#x2202;" horiz-adv-x="617" 
d="M250 617q-76 0 -143 -33l-40 92q83 46 191 46q41 0 80.5 -8.5t83 -34t76 -65t53.5 -108.5t21 -158q0 -166 -72.5 -264.5t-210.5 -98.5q-102 0 -175 63t-73 177q0 105 72.5 168t171.5 63q114 0 165 -57q-22 218 -200 218zM308 356q-72 0 -111 -38.5t-39 -98.5
q0 -59 40.5 -93.5t95.5 -34.5q78 0 118 60t40 142q-49 63 -144 63z" />
    <glyph glyph-name="Delta" unicode="&#x2206;" horiz-adv-x="678" 
d="M0 0l274 709h129l275 -709h-678zM338 576l-171 -465h343z" />
    <glyph glyph-name="product" unicode="&#x220f;" horiz-adv-x="686" 
d="M601 0h-118v600h-278v-600h-120v709h516v-709z" />
    <glyph glyph-name="summation" unicode="&#x2211;" horiz-adv-x="568" 
d="M40 0v107l263 248l-263 247v107h507v-111h-344l260 -243l-269 -244h353v-111h-507z" />
    <glyph glyph-name="minus" unicode="&#x2212;" horiz-adv-x="555" 
d="M503 244h-451v96h451v-96z" />
    <glyph glyph-name="uni2215" unicode="&#x2215;" horiz-adv-x="426" 
d="M426 653l-319 -658h-107l319 658h107z" />
    <glyph glyph-name="uni2219" unicode="&#x2219;" horiz-adv-x="284" 
d="M65 298q0 32 23 55t55 23q33 0 56 -23t23 -55q0 -33 -23 -55t-56 -22t-55.5 22t-22.5 55z" />
    <glyph glyph-name="radical" unicode="&#x221a;" horiz-adv-x="683" 
d="M716 773h-126l-261 -773h-106l-190 534h120l124 -364l231 704h208v-101z" />
    <glyph glyph-name="infinity" unicode="&#x221e;" horiz-adv-x="818" 
d="M408 213q-92 -101 -181 -101q-79 0 -131.5 50.5t-52.5 127.5t52.5 128t131.5 51q98 0 183 -103q91 103 181 103q80 0 131.5 -51t51.5 -128t-52 -127.5t-132 -50.5q-99 0 -182 101zM229 369q-37 0 -60 -23t-23 -57t23 -56.5t60 -22.5q54 0 117 77q-35 42 -60.5 62
t-56.5 20zM588 210q38 0 60.5 22.5t22.5 56.5q0 35 -22.5 57.5t-60.5 22.5q-30 0 -55.5 -19t-61.5 -60q33 -40 60 -60t57 -20z" />
    <glyph glyph-name="integral" unicode="&#x222b;" horiz-adv-x="332" 
d="M109 -24v560q0 80 46.5 126.5t126.5 46.5h45v-103h-38q-30 0 -47.5 -18.5t-17.5 -52.5v-561q0 -81 -45 -127.5t-125 -46.5h-49v103h39q29 0 47 19.5t18 53.5z" />
    <glyph glyph-name="approxequal" unicode="&#x2248;" horiz-adv-x="583" 
d="M488 447l62 -52q-58 -92 -155 -92q-52 0 -105 30l-47 26q-29 15 -58 15q-51 0 -88 -46l-64 54q59 93 153 93q49 0 106 -30l47 -25q33 -18 65 -18q48 0 84 45zM488 250l62 -53q-59 -92 -153 -92q-54 0 -107 30l-47 26q-24 13 -55 15q-54 0 -91 -46l-64 54q59 93 154 93
q49 0 105 -30l47 -25q34 -18 63 -18q52 0 86 46z" />
    <glyph glyph-name="notequal" unicode="&#x2260;" horiz-adv-x="598" 
d="M537 146h-281l-67 -98h-110l67 98h-84v95h150l70 102h-220v94h285l66 95h109l-66 -95h81v-94h-145l-70 -102h215v-95z" />
    <glyph glyph-name="lessequal" unicode="&#x2264;" horiz-adv-x="544" 
d="M60 143h422v-96h-422v96zM60 311v97l422 141v-99l-292 -89l292 -91v-99z" />
    <glyph glyph-name="greaterequal" unicode="&#x2265;" horiz-adv-x="544" 
d="M62 143h422v-96h-422v96zM484 408v-97l-422 -140v98l292 90l-292 90v100z" />
    <glyph glyph-name="dotmath" unicode="&#x22c5;" horiz-adv-x="284" 
d="M65 298q0 32 23 55t55 23q33 0 56 -23t23 -55q0 -33 -23 -55t-56 -22t-55.5 22t-22.5 55z" />
    <glyph glyph-name="uni24C5" unicode="&#x24c5;" horiz-adv-x="818" 
d="M124 355q0 -124 82 -209t202 -85q119 0 201.5 85t82.5 209t-82.5 208.5t-201.5 84.5q-120 0 -202 -84.5t-82 -208.5zM42 355q0 153 107 261t259 108t260 -108.5t108 -260.5q0 -153 -108 -261.5t-260 -108.5t-259 108.5t-107 261.5zM371 369h61q30 0 47 15.5t17 41.5
t-17 42t-47 16h-61v-115zM447 296h-76v-140h-86v401h162q58 0 97.5 -38.5t39.5 -92.5t-39.5 -92t-97.5 -38z" />
    <glyph glyph-name="filledbox" unicode="&#x25a0;" horiz-adv-x="914" 
d="M105 0v709h704v-709h-704z" />
    <glyph glyph-name="H22073" unicode="&#x25a1;" horiz-adv-x="914" 
d="M809 0h-704v709h704v-709zM205 613v-518h503v518h-503z" />
    <glyph glyph-name="triagup" unicode="&#x25b2;" horiz-adv-x="838" 
d="M420 724l418 -724h-838z" />
    <glyph glyph-name="uni25B3" unicode="&#x25b3;" horiz-adv-x="837" 
d="M420 724l417 -724h-837zM665 95l-246 430l-247 -430h493z" />
    <glyph glyph-name="lozenge" unicode="&#x25ca;" horiz-adv-x="590" 
d="M160 354l135 -231l134 231l-134 232zM32 354l205 355h116l205 -355l-205 -354h-116z" />
    <glyph glyph-name="circle" unicode="&#x25cb;" horiz-adv-x="821" 
d="M40 354q0 154 108 262.5t262 108.5t262.5 -108.5t108.5 -262.5t-108.5 -262t-262.5 -108t-262 108t-108 262zM141 354q0 -113 78.5 -193t190.5 -80t190.5 80t78.5 193t-78.5 193t-190.5 80t-190.5 -80t-78.5 -193z" />
    <glyph glyph-name="H18533" unicode="&#x25cf;" horiz-adv-x="821" 
d="M40 354q0 154 108 262.5t262 108.5t262.5 -108.5t108.5 -262.5t-108.5 -262t-262.5 -108t-262 108t-108 262z" />
    <glyph glyph-name="uni262E" unicode="&#x262e;" horiz-adv-x="818" 
d="M776 355q0 -153 -107.5 -261.5t-260.5 -108.5q-152 0 -259 108.5t-107 261.5t107 261t259 108q153 0 260.5 -108t107.5 -261zM677 355q0 102 -62.5 178.5t-158.5 93.5v-215l192 -179q29 58 29 122zM138 355q0 -66 28 -120l191 177v214q-95 -17 -157 -93t-62 -178zM456 82
q78 13 136 70l-136 130v-200zM221 153q56 -57 136 -71v200z" />
    <glyph glyph-name="uni2713" unicode="&#x2713;" horiz-adv-x="954" 
d="M934 656l-626 -673l-288 321l73 68l219 -239l551 594z" />
    <glyph glyph-name="uni2715" unicode="&#x2715;" horiz-adv-x="756" 
d="M663 -5l-286 289l-285 -289l-70 71l284 289l-284 287l72 71l283 -287l282 287l71 -71l-283 -287l287 -289z" />
    <glyph glyph-name="uni2780" unicode="&#x2780;" horiz-adv-x="821" 
d="M125 355q0 -124 82.5 -209t202.5 -85q119 0 201.5 85t82.5 209t-82.5 208.5t-201.5 84.5q-120 0 -202.5 -84.5t-82.5 -208.5zM43 355q0 152 107.5 260.5t259.5 108.5t260 -108.5t108 -260.5q0 -153 -108 -261.5t-260 -108.5t-259.5 108.5t-107.5 261.5zM471 172h-91v233
h-89v60q40 1 66 22.5t32 50.5h82v-366z" />
    <glyph glyph-name="uni2781" unicode="&#x2781;" horiz-adv-x="821" 
d="M125 355q0 -124 82.5 -209t202.5 -85q119 0 201.5 85t82.5 209t-82.5 208.5t-201.5 84.5q-120 0 -202.5 -84.5t-82.5 -208.5zM43 355q0 152 107.5 260.5t259.5 108.5t260 -108.5t108 -260.5q0 -153 -108 -261.5t-260 -108.5t-259.5 108.5t-107.5 261.5zM355 404l-84 -1
q-3 15 -3 30q0 51 37 86t101 35q63 0 100 -34.5t37 -84.5q0 -66 -75 -111l-71 -43q-17 -12 -20 -25h169v-76h-281v12q0 100 87 152l60 36q41 24 41 56q0 18 -13 31t-36 13q-24 0 -38 -14.5t-14 -37.5q0 -12 3 -24z" />
    <glyph glyph-name="uni2782" unicode="&#x2782;" horiz-adv-x="821" 
d="M125 355q0 -124 82.5 -209t202.5 -85q119 0 201.5 85t82.5 209t-82.5 208.5t-201.5 84.5q-120 0 -202.5 -84.5t-82.5 -208.5zM43 355q0 152 107.5 260.5t259.5 108.5t260 -108.5t108 -260.5q0 -153 -108 -261.5t-260 -108.5t-259.5 108.5t-107.5 261.5zM254 271l80 24
q4 -25 23 -41.5t46 -16.5t44 14t17 35q0 26 -17.5 38.5t-43.5 12.5q-16 0 -31 -6l-32 61l91 69h-164v75h279v-72l-94 -69q46 -5 74.5 -34t28.5 -76q0 -52 -41.5 -87.5t-109.5 -35.5q-63 0 -102.5 32t-47.5 77z" />
    <glyph glyph-name="uni2783" unicode="&#x2783;" horiz-adv-x="821" 
d="M125 355q0 -124 82.5 -209t202.5 -85q119 0 201.5 85t82.5 209t-82.5 208.5t-201.5 84.5q-120 0 -202.5 -84.5t-82.5 -208.5zM43 355q0 152 107.5 260.5t259.5 108.5t260 -108.5t108 -260.5q0 -153 -108 -261.5t-260 -108.5t-259.5 108.5t-107.5 261.5zM233 249v88
l172 207h99v-222h62v-73h-62v-71h-90v71h-181zM414 322v125l-103 -125h103z" />
    <glyph glyph-name="uni2784" unicode="&#x2784;" horiz-adv-x="821" 
d="M125 355q0 -124 82.5 -209t202.5 -85q119 0 201.5 85t82.5 209t-82.5 208.5t-201.5 84.5q-120 0 -202.5 -84.5t-82.5 -208.5zM43 355q0 152 107.5 260.5t259.5 108.5t260 -108.5t108 -260.5q0 -153 -108 -261.5t-260 -108.5t-259.5 108.5t-107.5 261.5zM254 263l79 25
q4 -24 22.5 -38t43.5 -14q27 0 43 14t16 39q0 28 -16.5 42t-43.5 14q-34 0 -58 -24l-74 24l47 188h214v-75h-158l-19 -73q25 25 72 25q57 0 91.5 -32t34.5 -87q0 -56 -39.5 -93.5t-109.5 -37.5q-56 0 -96 30t-49 73z" />
    <glyph glyph-name="uni2785" unicode="&#x2785;" horiz-adv-x="821" 
d="M125 355q0 -124 82.5 -209t202.5 -85q119 0 201.5 85t82.5 209t-82.5 208.5t-201.5 84.5q-120 0 -202.5 -84.5t-82.5 -208.5zM43 355q0 152 107.5 260.5t259.5 108.5t260 -108.5t108 -260.5q0 -153 -108 -261.5t-260 -108.5t-259.5 108.5t-107.5 261.5zM535 529l-18 -68
q-28 12 -64 12q-45 0 -77.5 -23.5t-41.5 -68.5q30 37 87 37q58 0 94 -32t36 -90t-43 -94.5t-109 -36.5q-65 0 -110.5 44.5t-45.5 123.5q0 97 58 155.5t146 58.5q49 0 88 -18zM339 294q0 -25 18 -40t43 -15t42.5 15t17.5 40t-18 40.5t-42 15.5q-25 0 -43 -15.5t-18 -40.5z
" />
    <glyph glyph-name="uni2786" unicode="&#x2786;" horiz-adv-x="821" 
d="M125 355q0 -124 82.5 -209t202.5 -85q119 0 201.5 85t82.5 209t-82.5 208.5t-201.5 84.5q-120 0 -202.5 -84.5t-82.5 -208.5zM43 355q0 152 107.5 260.5t259.5 108.5t260 -108.5t108 -260.5q0 -153 -108 -261.5t-260 -108.5t-259.5 108.5t-107.5 261.5zM561 531v-77
q-19 -14 -36.5 -32.5t-43 -53t-44 -87.5t-24.5 -116h-96q4 53 19.5 102.5t34 82t36.5 57.5t30 37l12 11h-191v76h303z" />
    <glyph glyph-name="uni2787" unicode="&#x2787;" horiz-adv-x="821" 
d="M125 355q0 -124 82.5 -209t202.5 -85q119 0 201.5 85t82.5 209t-82.5 208.5t-201.5 84.5q-120 0 -202.5 -84.5t-82.5 -208.5zM43 355q0 152 107.5 260.5t259.5 108.5t260 -108.5t108 -260.5q0 -153 -108 -261.5t-260 -108.5t-259.5 108.5t-107.5 261.5zM410 392
q23 0 36.5 12t13.5 31q0 17 -13 28.5t-37 11.5t-37.5 -11.5t-13.5 -28.5q0 -19 14 -31t37 -12zM410 238q30 0 45 12.5t15 33.5q0 19 -15.5 31.5t-44.5 12.5t-45 -12.5t-16 -31.5q0 -20 15.5 -33t45.5 -13zM410 165q-70 0 -110.5 30.5t-40.5 78.5q0 29 19.5 52.5t51.5 34.5
q-28 10 -44 32.5t-16 48.5q0 46 38.5 75.5t101.5 29.5t101 -29.5t38 -75.5q0 -26 -15.5 -48.5t-43.5 -32.5q32 -11 51.5 -34t19.5 -51q0 -49 -40 -80t-111 -31z" />
    <glyph glyph-name="uni2788" unicode="&#x2788;" horiz-adv-x="821" 
d="M125 355q0 -124 82.5 -209t202.5 -85q119 0 201.5 85t82.5 209t-82.5 208.5t-201.5 84.5q-120 0 -202.5 -84.5t-82.5 -208.5zM43 355q0 152 107.5 260.5t259.5 108.5t260 -108.5t108 -260.5q0 -153 -108 -261.5t-260 -108.5t-259.5 108.5t-107.5 261.5zM280 181l17 70
q35 -13 62 -13q48 0 81 22.5t40 69.5q-30 -37 -88 -37q-56 0 -93.5 33t-37.5 89q0 58 42.5 94.5t109.5 36.5q64 0 109.5 -43t45.5 -120q0 -103 -55 -161t-144 -58q-52 0 -89 17zM471 416q0 25 -17.5 40.5t-43.5 15.5q-25 0 -42.5 -15.5t-17.5 -40.5t17.5 -40.5t42.5 -15.5
q26 0 43.5 15.5t17.5 40.5z" />
    <glyph glyph-name="uniE020" unicode="&#xe020;" horiz-adv-x="776" 
d="M222 -16l-207 241h157v484h572v-100h-471v-384h156z" />
    <glyph glyph-name="uni21B5" unicode="&#xe021;" horiz-adv-x="1097" 
d="M239 122l-199 233h143q1 154 109 261.5t261 107.5q95 0 177 -44l-45 -90q-62 34 -131 34q-112 0 -191 -78.5t-79 -190.5h153zM921 353q-1 -153 -109 -260.5t-261 -107.5q-94 0 -177 44l45 90q62 -34 132 -34q112 0 190 78.5t78 190.5h-150l199 232l199 -233h-146z" />
    <glyph glyph-name="uniE022" unicode="&#xe022;" horiz-adv-x="953" 
d="M531 354l198 232l199 -232h-142q0 -153 -108 -261t-262 -108q-153 0 -261 108t-108 261q0 154 108 262t261 108q91 0 169 -40l-42 -91q-59 31 -126 31q-112 0 -190.5 -78.5t-78.5 -191.5t78.5 -192t190.5 -79t190 79t78 192h-154z" />
    <glyph glyph-name="uniFB00" unicode="&#xfb00;" horiz-adv-x="670" 
d="M611 625q-28 0 -50 -17t-22 -57v-64h113v-101h-113v-386h-117v386h-203v-386h-117v386h-85v101h85v67q0 81 47 128t123 47q41 0 61 -10v-99q-18 5 -42 5q-28 0 -50 -17t-22 -57v-64h203v67q0 81 47 128t123 47q41 0 61 -10v-99q-17 5 -42 5z" />
    <glyph glyph-name="fi" unicode="&#xfb01;" horiz-adv-x="619" 
d="M272 729q41 0 61 -10v-99q-18 5 -42 5q-28 0 -50 -17t-22 -57v-64h324v-487h-114v386h-210v-386h-117v386h-85v101h85v67q0 81 47 128t123 47zM411 659q0 32 22 54t53 22q32 0 54 -22.5t22 -53.5t-22.5 -53t-53.5 -22t-53 22t-22 53z" />
    <glyph glyph-name="fl" unicode="&#xfb02;" horiz-adv-x="617" 
d="M291 625q-28 0 -50 -17t-22 -57v-64h208v237h115v-724h-115v386h-208v-386h-117v386h-85v101h85v67q0 81 47 128t123 47q41 0 61 -10v-99q-18 5 -42 5z" />
    <glyph glyph-name="uniFB03" unicode="&#xfb03;" horiz-adv-x="940" 
d="M732 659q0 31 22 53.5t53 22.5t53.5 -22.5t22.5 -53.5t-22.5 -53t-53.5 -22t-53 22t-22 53zM611 625q-28 0 -50 -17t-22 -57v-64h326v-487h-115v386h-211v-386h-117v386h-203v-386h-117v386h-85v101h85v67q0 81 47 128t123 47q41 0 61 -10v-99q-18 5 -42 5
q-29 0 -50.5 -16.5t-21.5 -57.5v-64h203v67q0 81 47 128t123 47q41 0 61 -10v-99q-17 5 -42 5z" />
    <glyph glyph-name="uniFB04" unicode="&#xfb04;" horiz-adv-x="940" 
d="M611 625q-28 0 -50 -17t-22 -57v-64h211v237h115v-724h-115v386h-211v-386h-117v386h-203v-386h-117v386h-85v101h85v67q0 81 47 128t123 47q41 0 61 -10v-99q-18 5 -42 5q-28 0 -50 -17t-22 -57v-64h203v67q0 81 47 128t123 47q41 0 61 -10v-99q-17 5 -42 5z" />
    <glyph glyph-name="uniFEFF" unicode="&#xfeff;" horiz-adv-x="0" 
 />
    <glyph glyph-name="zero.numr" horiz-adv-x="431" 
d="M147 465q0 -114 68 -114t68 114q0 115 -68 115t-68 -115zM55 465q0 37 8 69t25.5 60.5t50 45t76.5 16.5q45 0 77.5 -17t50 -45.5t25.5 -60.5t8 -68q0 -35 -8 -66.5t-25 -60.5t-50 -46t-78 -17q-59 0 -96.5 30t-50.5 70t-13 90z" />
    <glyph glyph-name="one.numr" horiz-adv-x="308" 
d="M223 282h-91v233h-89v60q40 1 66 22.5t32 50.5h82v-366z" />
    <glyph glyph-name="two.numr" horiz-adv-x="392" 
d="M146 506l-84 -1q-3 15 -3 30q0 51 37 86t101 35q63 0 100 -34.5t37 -84.5q0 -66 -75 -111l-71 -43q-17 -12 -20 -25h169v-76h-281v12q0 100 87 152l60 36q41 24 41 56q0 18 -13 31t-36 13q-24 0 -38 -14.5t-14 -37.5q0 -12 3 -24z" />
    <glyph glyph-name="three.numr" horiz-adv-x="412" 
d="M55 383l80 24q4 -25 23 -41.5t46 -16.5t44 14t17 35q0 26 -17.5 38.5t-43.5 12.5q-16 0 -31 -6l-32 61l91 69h-164v75h279v-72l-94 -69q46 -5 74.5 -34t28.5 -76q0 -52 -41.5 -87.5t-109.5 -35.5q-63 0 -102.5 32t-47.5 77z" />
    <glyph glyph-name="four.numr" horiz-adv-x="443" 
d="M55 353v88l172 207h99v-222h62v-73h-62v-71h-90v71h-181zM236 426v125l-103 -125h103z" />
    <glyph glyph-name="five.numr" horiz-adv-x="388" 
d="M55 378l79 25q4 -24 22.5 -38t43.5 -14q27 0 43 14t16 39q0 28 -16.5 42t-43.5 14q-34 0 -58 -24l-74 24l47 188h214v-75h-158l-19 -73q25 25 72 25q57 0 91.5 -32t34.5 -87q0 -56 -39.5 -93.5t-109.5 -37.5q-56 0 -96 30t-49 73z" />
    <glyph glyph-name="six.numr" horiz-adv-x="418" 
d="M347 638l-18 -68q-29 12 -64 12q-45 0 -77.5 -23.5t-41.5 -68.5q30 37 87 37q58 0 94 -32t36 -90t-43 -94.5t-109 -36.5q-65 0 -110.5 44.5t-45.5 123.5q0 97 58 155.5t146 58.5q49 0 88 -18zM151 403q0 -25 18 -40t43 -15t42.5 15t17.5 40t-18 40.5t-42 15.5
q-25 0 -43 -15.5t-18 -40.5z" />
    <glyph glyph-name="seven.numr" horiz-adv-x="413" 
d="M358 648v-77q-19 -14 -36.5 -32.5t-43 -53t-44 -87.5t-24.5 -116h-96q4 53 19.5 102.5t34 82t36.5 57.5t30 36l12 12h-191v76h303z" />
    <glyph glyph-name="eight.numr" horiz-adv-x="415" 
d="M208 501q23 0 36.5 12t13.5 31q0 17 -13 28.5t-37 11.5t-37.5 -11.5t-13.5 -28.5q0 -19 14 -31t37 -12zM208 347q30 0 45 12.5t15 33.5q0 19 -15.5 31.5t-44.5 12.5t-45 -12.5t-16 -31.5q0 -20 15.5 -33t45.5 -13zM208 274q-70 0 -110.5 30.5t-40.5 78.5q0 29 19.5 52.5
t51.5 34.5q-28 10 -44 32.5t-16 48.5q0 46 38.5 75.5t101.5 29.5t101 -29.5t38 -75.5q0 -26 -15.5 -48.5t-43.5 -32.5q32 -11 51.5 -34t19.5 -51q0 -49 -40 -80t-111 -31z" />
    <glyph glyph-name="nine.numr" horiz-adv-x="417" 
d="M74 290l17 70q35 -13 62 -13q48 0 81 22.5t40 69.5q-30 -37 -88 -37q-56 0 -93.5 33t-37.5 89q0 58 42.5 94.5t109.5 36.5q64 0 109.5 -43t45.5 -120q0 -103 -55 -161t-144 -58q-52 0 -89 17zM265 525q0 25 -17.5 40.5t-43.5 15.5q-25 0 -42.5 -15.5t-17.5 -40.5
t17.5 -40.5t42.5 -15.5q26 0 43.5 15.5t17.5 40.5z" />
    <glyph glyph-name="zero.dnom" horiz-adv-x="431" 
d="M147 183q0 -114 68 -114t68 114q0 115 -68 115t-68 -115zM55 183q0 37 8 69t25.5 60.5t50 45t76.5 16.5q45 0 77.5 -17t50 -45.5t25.5 -60.5t8 -68q0 -35 -8 -66.5t-25 -60.5t-50 -46t-78 -17q-59 0 -96.5 30t-50.5 70t-13 90z" />
    <glyph glyph-name="one.dnom" horiz-adv-x="305" 
d="M223 0h-91v233h-89v60q40 1 66 22.5t32 50.5h82v-366z" />
    <glyph glyph-name="two.dnom" horiz-adv-x="392" 
d="M146 224l-84 -1q-3 15 -3 30q0 51 37 86t101 35q63 0 100 -34.5t37 -84.5q0 -66 -75 -111l-71 -43q-17 -12 -20 -25h169v-76h-281v12q0 100 87 152l60 36q41 24 41 56q0 18 -13 31t-36 13q-24 0 -38 -14.5t-14 -37.5q0 -12 3 -24z" />
    <glyph glyph-name="three.dnom" horiz-adv-x="412" 
d="M55 102l80 24q4 -25 23 -41.5t46 -16.5t44 14t17 35q0 26 -17.5 38.5t-43.5 12.5q-16 0 -31 -6l-32 61l91 69h-164v75h279v-72l-94 -69q46 -5 74.5 -34t28.5 -76q0 -52 -41.5 -87.5t-109.5 -35.5q-63 0 -102.5 32t-47.5 77z" />
    <glyph glyph-name="four.dnom" horiz-adv-x="443" 
d="M55 71v88l172 207h99v-222h62v-73h-62v-71h-90v71h-181zM236 144v125l-103 -125h103z" />
    <glyph glyph-name="five.dnom" horiz-adv-x="404" 
d="M55 96l79 25q4 -24 22.5 -38t43.5 -14q27 0 43 14t16 39q0 28 -16.5 42t-43.5 14q-34 0 -58 -24l-74 24l47 188h214v-75h-158l-19 -73q25 25 72 25q57 0 91.5 -32t34.5 -87q0 -56 -39.5 -93.5t-109.5 -37.5q-56 0 -96 30t-49 73z" />
    <glyph glyph-name="six.dnom" horiz-adv-x="418" 
d="M347 357l-18 -68q-29 12 -64 12q-45 0 -77.5 -23.5t-41.5 -68.5q30 37 87 37q58 0 94 -32t36 -90t-43 -94.5t-109 -36.5q-65 0 -110.5 44.5t-45.5 123.5q0 97 58 155.5t146 58.5q49 0 88 -18zM151 122q0 -25 18 -40t43 -15t42.5 15t17.5 40t-18 40.5t-42 15.5
q-25 0 -43 -15.5t-18 -40.5z" />
    <glyph glyph-name="seven.dnom" horiz-adv-x="413" 
d="M358 366v-77q-19 -14 -36.5 -32.5t-43 -53t-44 -87.5t-24.5 -116h-96q4 53 19.5 102.5t34 82t36.5 57.5t30 36l12 12h-191v76h303z" />
    <glyph glyph-name="eight.dnom" horiz-adv-x="415" 
d="M208 219q23 0 36.5 12t13.5 31q0 17 -13 28.5t-37 11.5t-37.5 -11.5t-13.5 -28.5q0 -19 14 -31t37 -12zM208 65q30 0 45 12.5t15 33.5q0 19 -15.5 31.5t-44.5 12.5t-45 -12.5t-16 -31.5q0 -20 15.5 -33t45.5 -13zM208 -8q-70 0 -110.5 30.5t-40.5 78.5q0 29 19.5 52.5
t51.5 34.5q-28 10 -44 32.5t-16 48.5q0 46 38.5 75.5t101.5 29.5t101 -29.5t38 -75.5q0 -26 -15.5 -48.5t-43.5 -32.5q32 -11 51.5 -34t19.5 -51q0 -49 -40 -80t-111 -31z" />
    <glyph glyph-name="nine.dnom" horiz-adv-x="417" 
d="M74 9l17 70q35 -13 62 -13q48 0 81 22.5t40 69.5q-30 -37 -88 -37q-56 0 -93.5 33t-37.5 89q0 58 42.5 94.5t109.5 36.5q64 0 109.5 -43t45.5 -120q0 -103 -55 -161t-144 -58q-52 0 -89 17zM265 244q0 25 -17.5 40.5t-43.5 15.5q-25 0 -42.5 -15.5t-17.5 -40.5
t17.5 -40.5t42.5 -15.5q26 0 43.5 15.5t17.5 40.5z" />
    <glyph glyph-name="space.frac" horiz-adv-x="49" 
 />
    <glyph glyph-name="a.ordn" horiz-adv-x="425" 
d="M59 399q0 44 29 70.5t74 32.5l86 13q26 4 26 24q0 21 -16 34t-45 13t-46.5 -16t-19.5 -41l-81 17q5 46 44 79.5t103 33.5q76 0 112 -36.5t36 -93.5v-169q0 -39 4 -55h-82q-4 12 -4 42q-33 -52 -102 -52q-53 0 -85.5 30.5t-32.5 73.5zM196 363q34 0 56 19.5t22 62.5v15
l-82 -12q-43 -7 -43 -44q0 -17 12 -29t35 -12z" />
    <glyph glyph-name="b.ordn" horiz-adv-x="499" 
d="M173 305h-88v507h89v-203q12 21 40 34.5t65 13.5q74 0 116 -50t42 -129t-44 -130t-117 -51q-72 0 -103 51v-43zM347 478q0 47 -24.5 73t-62.5 26t-62.5 -26.5t-24.5 -72.5q0 -47 25 -74t62 -27q38 0 62.5 27t24.5 74z" />
    <glyph glyph-name="c.ordn" horiz-adv-x="461" 
d="M241 576q-38 0 -63.5 -26.5t-25.5 -73.5q0 -46 26 -72.5t64 -26.5q33 0 53.5 17.5t27.5 41.5l80 -27q-13 -47 -55 -80.5t-106 -33.5q-76 0 -128 51.5t-52 129.5q0 80 51 131.5t127 51.5q65 0 106 -33.5t54 -81.5l-81 -28q-6 25 -25.5 42.5t-52.5 17.5z" />
    <glyph glyph-name="d.ordn" horiz-adv-x="501" 
d="M413 812v-445q0 -30 4 -62h-87q-3 10 -3 40q-30 -48 -98 -48q-73 0 -120 51.5t-47 129.5q0 76 46.5 127.5t118.5 51.5q75 0 98 -44v199h88zM153 477q0 -46 24 -73.5t63 -27.5q37 0 61.5 28t24.5 74t-24 72.5t-62 26.5t-62.5 -27t-24.5 -73z" />
    <glyph glyph-name="e.ordn" horiz-adv-x="457" 
d="M150 516h158q-1 29 -21 49.5t-58 20.5q-34 0 -55.5 -21.5t-23.5 -48.5zM317 426l76 -22q-15 -48 -56 -78.5t-101 -30.5q-74 0 -125.5 50t-51.5 134q0 79 50 129.5t119 50.5q79 0 124 -47.5t45 -130.5q0 -6 -0.5 -13t-0.5 -11l-1 -4h-247q1 -35 27 -58.5t62 -23.5
q60 0 80 55z" />
    <glyph glyph-name="f.ordn" horiz-adv-x="346" 
d="M286 572h-78v-267h-90v267h-58v77h58v41q0 58 33.5 92.5t89.5 34.5q30 0 46 -7v-76q-16 4 -30 4q-19 0 -34 -11.5t-15 -37.5v-40h78v-77z" />
    <glyph glyph-name="g.ordn" horiz-adv-x="466" 
d="M62 286l81 22q5 -30 27.5 -48.5t55.5 -18.5q92 0 92 97v28q-27 -46 -97 -46q-68 0 -113 47.5t-45 119.5q0 70 44.5 119t113.5 49q75 0 100 -48v42h86v-308q0 -77 -44 -128t-135 -51q-67 0 -112.5 36t-53.5 88zM237 397q37 0 60 24.5t23 65.5t-23.5 65.5t-59.5 24.5
q-37 0 -60.5 -24.5t-23.5 -65.5t23 -65.5t61 -24.5z" />
    <glyph glyph-name="h.ordn" horiz-adv-x="481" 
d="M176 507v-202h-91v507h91v-193q31 39 93 39t95 -38.5t33 -98.5v-216h-90v201q0 71 -66 71q-29 0 -46.5 -20t-18.5 -50z" />
    <glyph glyph-name="i.ordn" horiz-adv-x="282" 
d="M186 305h-90v344h90v-344zM85 763q0 23 16.5 39.5t39.5 16.5t39.5 -16.5t16.5 -39.5t-16.5 -39.5t-39.5 -16.5t-39.5 16.5t-16.5 39.5z" />
    <glyph glyph-name="j.ordn" horiz-adv-x="314" 
d="M137 282v367h91v-375q0 -50 -29 -81t-78 -31q-36 0 -50 7v75q12 -3 27 -3q39 0 39 41zM126 763q0 24 16.5 40.5t39.5 16.5t39.5 -16.5t16.5 -40.5q0 -23 -16.5 -39t-39.5 -16t-39.5 16t-16.5 39z" />
    <glyph glyph-name="k.ordn" horiz-adv-x="448" 
d="M416 649l-139 -145l142 -199h-111l-94 134l-39 -42v-92h-90v507h90v-294l122 131h119z" />
    <glyph glyph-name="l.ordn" horiz-adv-x="260" 
d="M176 305h-91v507h91v-507z" />
    <glyph glyph-name="m.ordn" horiz-adv-x="692" 
d="M175 305h-90v344h86v-43q14 24 42.5 38t58.5 14q75 0 102 -58q36 58 110 58q52 0 88 -33t36 -97v-223h-88v206q0 30 -15.5 48t-46.5 18q-30 0 -47.5 -20t-17.5 -50v-202h-90v206q0 29 -15.5 47.5t-46.5 18.5t-48.5 -20t-17.5 -50v-202z" />
    <glyph glyph-name="n.ordn" horiz-adv-x="481" 
d="M176 502v-197h-91v344h88v-44q30 53 100 53q60 0 92 -38.5t32 -98.5v-216h-90v201q0 71 -66 71q-31 0 -48 -21t-17 -54z" />
    <glyph glyph-name="o.ordn" horiz-adv-x="483" 
d="M242 376q38 0 63.5 26.5t25.5 74.5t-25.5 74t-63.5 26t-63.5 -26t-25.5 -74q0 -47 26 -74t63 -27zM242 659q78 0 129 -51.5t51 -130.5t-51 -130.5t-129 -51.5t-129 51.5t-51 130.5t51 130.5t129 51.5z" />
    <glyph glyph-name="p.ordn" horiz-adv-x="499" 
d="M175 172h-90v477h87v-44q13 22 41.5 36.5t65.5 14.5q73 0 115.5 -50t42.5 -129q0 -78 -44.5 -129t-116.5 -51q-71 0 -101 43v-168zM349 477q0 45 -25 72t-63 27t-62.5 -27t-24.5 -72q0 -46 24.5 -73t62.5 -27t63 27t25 73z" />
    <glyph glyph-name="q.ordn" horiz-adv-x="490" 
d="M415 172h-89v169q-26 -44 -97 -44q-73 0 -120 51.5t-47 129.5q0 76 45.5 127.5t118.5 51.5q41 0 67 -15.5t35 -34.5v42h87v-477zM153 477q0 -46 24.5 -73.5t62.5 -27.5t62.5 27.5t24.5 73.5t-24.5 73t-62.5 27t-62.5 -27t-24.5 -73z" />
    <glyph glyph-name="r.ordn" horiz-adv-x="297" 
d="M283 650v-91q-13 3 -26 3q-91 0 -91 -98v-159h-91v344h88v-52q26 55 98 55q8 0 22 -2z" />
    <glyph glyph-name="s.ordn" horiz-adv-x="400" 
d="M63 399l78 19q2 -23 18.5 -38.5t45.5 -15.5q23 0 35 10t12 25q0 28 -38 36l-47 10q-47 10 -71 37.5t-24 64.5q0 46 36.5 79t90.5 33q65 0 97.5 -31t37.5 -68l-76 -18q-7 49 -58 49q-19 0 -32 -11t-13 -26q0 -25 32 -32l45 -9q49 -9 77.5 -37.5t28.5 -69.5
q0 -44 -34.5 -77.5t-97.5 -33.5q-68 0 -103.5 33.5t-39.5 70.5z" />
    <glyph glyph-name="t.ordn" horiz-adv-x="326" 
d="M198 752v-103h70v-80h-70v-149q0 -40 42 -40q13 0 28 3v-75q-20 -8 -52 -8q-50 0 -78.5 28t-28.5 77v164h-63v80h18q26 0 39.5 15t13.5 39v49h81z" />
    <glyph glyph-name="u.ordn" horiz-adv-x="452" 
d="M291 305q-3 10 -3 36q-29 -45 -96 -45q-60 0 -95 39t-35 97v217h90v-200q0 -31 16 -51t49 -20q31 0 48.5 19t17.5 51v201h90v-282q0 -32 3 -62h-85z" />
    <glyph glyph-name="v.ordn" horiz-adv-x="413" 
d="M388 649l-134 -344h-90l-140 344h99l86 -235l84 235h95z" />
    <glyph glyph-name="w.ordn" horiz-adv-x="617" 
d="M263 649h94l77 -226l64 226h90l-108 -344h-90l-82 238l-79 -238h-93l-110 344h96l65 -226z" />
    <glyph glyph-name="x.ordn" horiz-adv-x="419" 
d="M33 305l123 173l-122 171h107q5 -8 35 -52t35 -53l69 105h103l-120 -169q101 -144 124 -175h-106l-74 108q-3 -4 -34.5 -51t-37.5 -57h-102z" />
    <glyph glyph-name="y.ordn" horiz-adv-x="426" 
d="M186 169h-96l81 179l-146 301h101l93 -206l87 206h95z" />
    <glyph glyph-name="z.ordn" horiz-adv-x="407" 
d="M345 305h-283v79l166 186h-162v79h276v-76l-170 -190h173v-78z" />
    <glyph glyph-name="space.tf" 
 />
    <glyph glyph-name="numbersign.tf" 
d="M504 648l-35 -161h92v-90h-111l-31 -142h93v-91h-112l-35 -164h-98l35 164h-110l-35 -164h-98l35 164h-85v91h104l31 142h-86v90h105l35 161h98l-35 -161h110l35 161h98zM242 397l-31 -142h110l31 142h-110z" />
    <glyph glyph-name="dollar.tf" 
d="M341 -109h-90v103q-95 12 -149 69.5t-62 128.5l110 31q4 -46 29 -81t72 -46v180l-18 4q-80 18 -124 64t-44 117q0 73 52.5 127t133.5 65v104h90v-105q80 -13 123.5 -60t54.5 -104l-106 -33q-12 70 -72 93v-176l9 -1q85 -19 130.5 -69t45.5 -118q0 -69 -49 -123t-136 -66
v-104zM179 468q0 -62 72 -77v161q-34 -9 -53 -32t-19 -52zM412 178q0 59 -71 79v-161q35 7 53 29.5t18 52.5z" />
    <glyph glyph-name="percent.tf" 
d="M526 538v-95l-482 -327v93zM102 519q0 -26 16.5 -42.5t40.5 -16.5q25 0 41 16.5t16 42.5q0 25 -16 41.5t-41 16.5q-24 0 -40.5 -16.5t-16.5 -41.5zM20 519q0 57 41 96.5t98 39.5t98 -39.5t41 -96.5q0 -58 -41 -97.5t-98 -39.5t-98 40t-41 97zM353 129q0 -26 16.5 -42.5
t40.5 -16.5q25 0 41 16.5t16 42.5t-16 42t-41 16q-24 0 -40.5 -16t-16.5 -42zM271 129q0 57 41 97t98 40t98 -40t41 -97t-41 -97t-98 -40t-98 40t-41 97z" />
    <glyph glyph-name="plus.tf" 
d="M48 339h188v195h99v-195h188v-95h-188v-197h-99v197h-188v95z" />
    <glyph glyph-name="comma.tf" 
d="M187 83q0 36 27 61t67 25q45 0 74 -33t29 -87q0 -108 -57.5 -167.5t-127.5 -68.5v67q40 8 70 43.5t31 78.5q-12 -5 -27 -5q-38 0 -62 23.5t-24 62.5z" />
    <glyph glyph-name="period.tf" 
d="M193 85q0 38 27 65.5t65 27.5t65.5 -27.5t27.5 -65.5t-27.5 -65t-65.5 -27t-65 27t-27 65z" />
    <glyph glyph-name="zero.tf" 
d="M152 324q0 -30 1.5 -52.5t5.5 -52t13 -50.5t23 -40t37 -29t53 -10q36 0 61.5 15.5t39 37.5t21 56.5t9.5 61.5t2 63q0 47 -4 80.5t-16 72t-40.5 59.5t-72.5 21q-36 0 -61.5 -15.5t-39 -37t-21.5 -56t-9.5 -61t-1.5 -63.5zM32 324q0 157 52 236q69 103 201 103
q133 0 201 -103q52 -79 52 -236q0 -158 -52 -237q-68 -102 -201 -102t-201 102q-52 79 -52 237z" />
    <glyph glyph-name="one.tf" 
d="M94 104h163v340h-153v82q67 1 111.5 35t55.5 87h104v-544h153v-104h-434v104z" />
    <glyph glyph-name="two.tf" 
d="M175 405l-116 8q-3 27 -3 37q0 88 62.5 150.5t168.5 62.5q104 0 166 -59t62 -145q0 -124 -125 -201l-126 -78q-55 -33 -66 -74h321v-106h-469q2 87 37 152t117 116l107 67q83 52 83 122q0 43 -28.5 72t-80.5 29q-55 0 -84 -33.5t-29 -86.5z" />
    <glyph glyph-name="three.tf" 
d="M221 294l-55 89l179 160h-295v105h450v-100l-176 -154q78 -2 136 -55t58 -142q0 -88 -66 -150t-177 -62q-108 0 -174.5 59.5t-72.5 145.5l117 24q2 -56 38.5 -91t90.5 -35q57 0 90 32t33 78q0 52 -34.5 79.5t-80.5 27.5q-39 0 -61 -11z" />
    <glyph glyph-name="four.tf" 
d="M34 142v130l274 376h154v-400h97v-106h-97v-142h-118v142h-310zM344 248v279l-202 -279h202z" />
    <glyph glyph-name="five.tf" 
d="M44 179l113 29q4 -53 40 -87t91 -34q52 0 87.5 32.5t35.5 85.5q0 57 -36 88.5t-89 31.5q-68 0 -108 -45l-113 41l80 327h355v-105h-274l-40 -164q43 45 124 45q99 0 160.5 -58t61.5 -158q0 -94 -67 -159t-177 -65q-102 0 -170 57.5t-74 137.5z" />
    <glyph glyph-name="six.tf" 
d="M524 631l-34 -98q-52 25 -113 25q-91 0 -151 -56t-68 -150q21 33 63 55t99 22q97 0 158.5 -60t61.5 -159t-71 -162t-174 -63q-109 0 -183.5 77t-74.5 221q0 175 97 277.5t252 102.5q88 0 138 -32zM170 208q0 -53 37.5 -87t87.5 -34q52 0 88 33t36 88t-36 88t-88 33
t-88.5 -33t-36.5 -88z" />
    <glyph glyph-name="seven.tf" 
d="M536 648v-105q-246 -202 -277 -543h-124q8 101 38 194.5t67.5 154t73.5 106.5t60 67l25 21h-369v105h506z" />
    <glyph glyph-name="eight.tf" 
d="M285 378q48 1 77.5 27.5t29.5 67.5q0 38 -29.5 65t-77.5 27t-77 -27t-29 -65q0 -41 29 -67.5t77 -27.5zM285 86q57 0 89.5 28.5t32.5 70.5t-32.5 71t-89.5 29q-56 0 -88.5 -29t-32.5 -71t32.5 -70.5t88.5 -28.5zM285 -15q-109 0 -174.5 53t-65.5 135q0 54 33.5 97.5
t86.5 61.5q-46 17 -75.5 58.5t-29.5 89.5q0 81 63.5 132t161.5 51t162 -51t64 -132q0 -47 -29.5 -89t-75.5 -59q52 -19 86 -62t34 -97q0 -82 -65.5 -135t-175.5 -53z" />
    <glyph glyph-name="nine.tf" 
d="M44 22l33 98q47 -30 116 -30q100 0 155 55t60 149q-19 -33 -61.5 -54t-95.5 -21q-92 0 -157.5 59.5t-65.5 158.5t70 162.5t173 63.5q107 0 181 -78.5t74 -224.5q0 -178 -84.5 -276.5t-247.5 -98.5q-94 0 -150 37zM392 441q0 52 -36.5 85.5t-86.5 33.5t-86.5 -33
t-36.5 -86q0 -55 35.5 -87.5t87.5 -32.5q50 0 86.5 33t36.5 87z" />
    <glyph glyph-name="colon.tf" 
d="M196 412q0 37 25.5 63t61.5 26q37 0 63 -26t26 -63q0 -36 -26 -62t-63 -26q-36 0 -61.5 26t-25.5 62zM196 74q0 37 25.5 63t61.5 26q37 0 63 -26t26 -63q0 -36 -26 -62t-63 -26q-36 0 -61.5 26t-25.5 62z" />
    <glyph glyph-name="semicolon.tf" 
d="M195 79q0 33 25 56t62 23q42 0 69 -30.5t27 -80.5q0 -52 -16.5 -94t-43 -67t-54.5 -39t-57 -18v62q37 8 64.5 40.5t28.5 72.5q-10 -5 -25 -5q-35 0 -57.5 22t-22.5 58zM198 412q0 37 25.5 63t61.5 26q37 0 63 -26t26 -63q0 -36 -26 -62t-63 -26q-36 0 -61.5 26t-25.5 62z
" />
    <glyph glyph-name="less.tf" 
d="M73 244v94l422 212v-111l-302 -147l302 -148v-111z" />
    <glyph glyph-name="equal.tf" 
d="M523 343h-475v94h475v-94zM523 146h-475v95h475v-95z" />
    <glyph glyph-name="greater.tf" 
d="M497 338v-94l-422 -211v110l304 148l-304 147v112z" />
    <glyph glyph-name="cent.tf" 
d="M342 0h-91v90q-83 17 -136 81.5t-53 153.5t53 153t136 81v90h91v-88q69 -11 113.5 -52t58.5 -93l-100 -35q-16 61 -72 78v-271q31 9 51 31.5t27 47.5l98 -35q-17 -53 -62 -94t-114 -51v-87zM171 325q0 -49 21.5 -83t58.5 -49v262q-80 -32 -80 -130z" />
    <glyph glyph-name="sterling.tf" 
d="M61 368h64q-22 55 -22 105q0 80 56.5 135t146.5 55q55 0 96.5 -17t64 -45t33 -58t11.5 -63l-111 -18q0 49 -24.5 75t-67.5 26q-39 0 -64.5 -24t-25.5 -68q0 -37 26 -103h182v-95h-152q2 -16 2 -24q0 -98 -83 -146h149q42 0 65 26.5t23 67.5l108 -12q0 -81 -47.5 -133
t-125.5 -52h-309v104q50 19 79 54.5t29 78.5q0 20 -4 36h-99v95z" />
    <glyph glyph-name="currency.tf" 
d="M73 242q0 62 33 114l-74 75l72 71l74 -76q51 30 110 30q58 0 106 -28l73 74l71 -71l-70 -72q35 -53 35 -117q0 -63 -34 -116l69 -70l-70 -70l-71 72q-49 -29 -109 -29q-61 0 -112 31l-73 -74l-71 70l73 74q-32 49 -32 112zM172 242q0 -51 33 -84t83 -33t82.5 33t32.5 84
t-32.5 84t-82.5 33t-83 -33t-33 -84z" />
    <glyph glyph-name="yen.tf" 
d="M513 144h-167v-144h-116v144h-164v84h164v74h-164v84h105l-158 262h135l141 -251l137 251h131l-154 -262h110v-84h-167v-74h167v-84z" />
    <glyph glyph-name="section.tf" 
d="M488 249q0 -42 -23.5 -74.5t-55.5 -49.5q81 -58 81 -143q0 -83 -61.5 -135t-145.5 -52q-94 0 -148 50.5t-56 134.5l108 20q0 -51 25 -79.5t72 -28.5q40 0 64.5 21.5t24.5 58.5q0 48 -50 74l-102 52q-67 34 -103 72.5t-36 99.5q0 42 23.5 74.5t56.5 49.5q-82 56 -82 143
q0 83 61.5 134.5t146.5 51.5q94 0 147.5 -51.5t55.5 -132.5l-109 -20q0 51 -25 79t-70 28q-40 0 -65.5 -22.5t-25.5 -57.5q0 -47 51 -73l101 -52q67 -34 103.5 -72.5t36.5 -99.5zM328 304l-101 53q-38 -26 -38 -66q0 -49 52 -76l100 -53q39 27 39 66q0 47 -52 76z" />
    <glyph glyph-name="logicalnot.tf" 
d="M508 142h-101v195h-377v97h478v-292z" />
    <glyph glyph-name="plusminus.tf" 
d="M58 405h178v129h99v-129h178v-94h-178v-128h-99v128h-178v94zM58 143h455v-96h-455v96z" />
    <glyph glyph-name="multiply.tf" 
d="M452 51l-167 171l-167 -171l-69 69l168 172l-167 171l69 69l166 -171l166 171l69 -69l-167 -171l168 -172z" />
    <glyph glyph-name="divide.tf" 
d="M211 473q0 29 21.5 50t50.5 21t50.5 -21t21.5 -50t-21.5 -51t-50.5 -22t-50.5 22t-21.5 51zM47 243v98h475v-98h-475zM211 111q0 29 21.5 50.5t50.5 21.5t50.5 -21.5t21.5 -50.5t-21.5 -50.5t-50.5 -21.5t-50.5 21.5t-21.5 50.5z" />
    <glyph glyph-name="florin.tf" 
d="M168 24l73 364h-103v99h123l21 101q16 76 65 114t112 38q43 0 82 -12v-101q-26 8 -57 8q-73 0 -90 -84l-13 -64h122v-99h-142l-81 -401q-15 -76 -64.5 -114t-112.5 -38q-44 0 -85 12v101q28 -7 61 -7q73 0 89 83z" />
    <glyph glyph-name="uni2007.tf" 
 />
    <glyph glyph-name="uni2008.tf" 
 />
    <glyph glyph-name="perthousand.tf" 
d="M531 622v-95l-486 -362v94zM90 536q0 -23 15 -38t37 -15t36 15t14 38t-14 37.5t-36 14.5t-37 -14.5t-15 -37.5zM19 536q0 50 36.5 85.5t86.5 35.5t86 -35.5t36 -85.5t-36 -85t-86 -35q-51 0 -87 35t-36 85zM132 110q0 51 36 86t86 35q51 0 86 -37q37 37 87 37t86.5 -35.5
t36.5 -85.5t-36.5 -85t-86.5 -35q-52 0 -87 37q-34 -37 -86 -37q-50 0 -86 35t-36 85zM254 163q-22 0 -36.5 -15t-14.5 -38t14.5 -37.5t36.5 -14.5t36 14.5t14 37.5t-14 38t-36 15zM427 163q-22 0 -36.5 -15t-14.5 -38t14.5 -37.5t36.5 -14.5t36 14.5t14 37.5t-14 38t-36 15
z" />
    <glyph glyph-name="Euro.tf" 
d="M44 287h70q-2 22 -2 37q0 21 2 35h-70v87h87q35 102 121.5 159.5t190.5 57.5q66 0 115 -19l-28 -99q-36 14 -87 14q-60 0 -109.5 -28.5t-76.5 -84.5h244l-26 -87h-241q-2 -12 -2 -35q0 -19 2 -37h225l-25 -88h-175q27 -52 76 -79.5t109 -27.5q46 0 87 13l27 -98
q-49 -21 -114 -21q-105 0 -191 56t-121 157h-88v88z" />
    <glyph glyph-name="minus.tf" 
d="M510 244h-451v96h451v-96z" />
    <glyph glyph-name="approxequal.tf" 
d="M481 447l62 -52q-58 -92 -155 -92q-52 0 -105 30l-47 26q-28 15 -58 15q-51 0 -88 -46l-64 54q59 93 154 93q50 0 105 -30l47 -25q34 -18 63 -18q51 0 86 45zM481 250l62 -53q-58 -92 -155 -92q-51 0 -105 30l-47 26q-24 13 -58 15q-52 0 -88 -46l-64 54q59 93 152 93
q50 0 107 -30l47 -25q34 -18 63 -18q51 0 86 46z" />
    <glyph glyph-name="notequal.tf" 
d="M522 146h-274l-68 -98h-109l68 98h-92v95h157l71 102h-228v94h292l66 95h109l-66 -95h74v-94h-138l-71 -102h209v-95z" />
    <glyph glyph-name="lessequal.tf" 
d="M74 143h422v-96h-422v96zM74 311v97l422 141v-99l-292 -89l292 -91v-99z" />
    <glyph glyph-name="greaterequal.tf" 
d="M74 143h422v-96h-422v96zM496 408v-97l-422 -140v98l292 90l-292 90v100z" />
    <glyph glyph-name="parenleft.case" horiz-adv-x="307" 
d="M48 353q0 262 191 455l68 -58q-81 -92 -121 -184.5t-40 -212.5t40 -212.5t121 -184.5l-68 -58q-191 193 -191 455z" />
    <glyph glyph-name="parenright.case" horiz-adv-x="307" 
d="M259 353q0 -262 -191 -455l-68 58q81 92 121 184.5t40 212.5t-40 212.5t-121 184.5l68 58q191 -193 191 -455z" />
    <glyph glyph-name="hyphen.case" horiz-adv-x="372" 
d="M327 291h-282v103h282v-103z" />
    <glyph glyph-name="bracketleft.case" horiz-adv-x="304" 
d="M299 -100h-214v909h214v-90h-116v-729h116v-90z" />
    <glyph glyph-name="bracketright.case" horiz-adv-x="304" 
d="M219 -100h-214v90h116v729h-116v90h214v-909z" />
    <glyph glyph-name="braceleft.case" horiz-adv-x="365" 
d="M45 304v100q47 0 76 23.5t29 73.5v118q0 95 48.5 142.5t138.5 47.5h23v-89h-22q-46 0 -68 -23t-22 -74v-144q0 -48 -27 -81t-75 -44q48 -11 75 -43t27 -81v-144q0 -51 22 -73.5t68 -22.5h22v-89h-23q-90 0 -138.5 47.5t-48.5 142.5v117q0 49 -29 72.5t-76 23.5z" />
    <glyph glyph-name="braceright.case" horiz-adv-x="365" 
d="M320 404v-100q-47 0 -76 -23.5t-29 -72.5v-117q0 -95 -48.5 -142.5t-138.5 -47.5h-23v89h22q46 0 68 22.5t22 73.5v144q0 49 27 81t75 43q-48 11 -75 44t-27 81v144q0 51 -22 74t-68 23h-22v89h23q90 0 138.5 -47.5t48.5 -142.5v-118q0 -50 29 -73.5t76 -23.5z" />
    <glyph glyph-name="exclamdown.case" horiz-adv-x="314" 
d="M198 498l29 -498h-142l30 498h83zM83 642q0 30 21.5 51.5t51.5 21.5t52 -21.5t22 -51.5t-22 -51.5t-52 -21.5t-51.5 21t-21.5 52z" />
    <glyph glyph-name="guillemotleft.case" horiz-adv-x="500" 
d="M274 150h-111l-135 193l136 194h111l-134 -195zM481 150h-111l-135 193l136 194h111l-134 -195z" />
    <glyph glyph-name="uni00AD.case" horiz-adv-x="372" 
d="M327 302h-282v103h282v-103z" />
    <glyph glyph-name="guillemotright.case" horiz-adv-x="500" 
d="M337 150h-111l133 192l-134 195h111l136 -194zM130 150h-111l133 192l-134 195h111l136 -194z" />
    <glyph glyph-name="questiondown.case" horiz-adv-x="514" 
d="M221 500h99q3 -18 3 -38q0 -93 -80 -150l-46 -33q-47 -34 -47 -88q0 -42 28 -71t80 -29q54 0 83 34t29 82q0 27 -6 45l114 -12q5 -18 5 -46q0 -82 -59.5 -145t-165.5 -63t-167 59.5t-61 140.5q0 106 99 176l43 30q49 35 49 98v10zM197 643q0 30 21 51.5t52 21.5
q30 0 51.5 -21.5t21.5 -51.5t-21.5 -51.5t-51.5 -21.5q-31 0 -52 21.5t-21 51.5z" />
    <glyph glyph-name="endash.case" horiz-adv-x="627" 
d="M570 292h-514v101h514v-101z" />
    <glyph glyph-name="emdash.case" horiz-adv-x="1079" 
d="M1012 292h-946v101h946v-101z" />
    <glyph glyph-name="guilsinglleft.case" horiz-adv-x="293" 
d="M274 150h-111l-135 193l136 194h111l-134 -195z" />
    <glyph glyph-name="guilsinglright.case" horiz-adv-x="293" 
d="M130 150h-111l133 192l-134 195h112l135 -194z" />
    <glyph glyph-name="G.ss01" horiz-adv-x="771" 
d="M403 -15q-148 0 -254.5 102t-106.5 268q0 165 106.5 267t253.5 102q126 0 211 -65t110 -163l-115 -35q-18 68 -70.5 110t-135.5 42q-98 0 -168 -66.5t-70 -191.5q0 -123 69.5 -191.5t169.5 -68.5q82 0 138.5 42.5t67.5 110.5h-267v106h390q2 -13 2 -40q-1 -141 -89 -235
t-242 -94z" />
    <glyph glyph-name="a.ss02" horiz-adv-x="599" 
d="M153 246q0 -71 36 -115t96 -44q57 0 93 44.5t36 114.5t-35.5 112t-93.5 42q-59 0 -95.5 -42t-36.5 -112zM415 70q-17 -37 -54.5 -60t-88.5 -23q-105 0 -170 73.5t-65 185.5q0 108 65 181.5t168 73.5q58 0 94.5 -24t48.5 -54v64h113v-398q0 -39 5 -89h-111q-5 28 -5 70z
" />
    <glyph glyph-name="agrave.ss02" horiz-adv-x="599" 
d="M153 246q0 -71 36 -115t96 -44q57 0 93 44.5t36 114.5t-35.5 112t-93.5 42q-59 0 -95.5 -42t-36.5 -112zM415 70q-17 -37 -54.5 -60t-88.5 -23q-105 0 -170 73.5t-65 185.5q0 108 65 181.5t168 73.5q58 0 94.5 -24t48.5 -54v64h113v-398q0 -39 5 -89h-111q-5 28 -5 70z
M247 548l-132 148h139l88 -148h-95z" />
    <glyph glyph-name="aacute.ss02" horiz-adv-x="599" 
d="M437 696l-131 -148h-95l89 148h137zM153 246q0 -71 36 -115t96 -44q57 0 93 44.5t36 114.5t-35.5 112t-93.5 42q-59 0 -95.5 -42t-36.5 -112zM415 70q-17 -37 -54.5 -60t-88.5 -23q-105 0 -170 73.5t-65 185.5q0 108 65 181.5t168 73.5q58 0 94.5 -24t48.5 -54v64h113
v-398q0 -39 5 -89h-111q-5 28 -5 70z" />
    <glyph glyph-name="acircumflex.ss02" horiz-adv-x="599" 
d="M222 549h-97l107 143h121l108 -143h-99l-70 77zM153 246q0 -71 36 -115t96 -44q57 0 93 44.5t36 114.5t-35.5 112t-93.5 42q-59 0 -95.5 -42t-36.5 -112zM415 70q-17 -37 -54.5 -60t-88.5 -23q-105 0 -170 73.5t-65 185.5q0 108 65 181.5t168 73.5q58 0 94.5 -24
t48.5 -54v64h113v-398q0 -39 5 -89h-111q-5 28 -5 70z" />
    <glyph glyph-name="atilde.ss02" horiz-adv-x="599" 
d="M153 246q0 -71 36 -115t96 -44q57 0 93 44.5t36 114.5t-35.5 112t-93.5 42q-59 0 -95.5 -42t-36.5 -112zM415 70q-17 -37 -54.5 -60t-88.5 -23q-105 0 -170 73.5t-65 185.5q0 108 65 181.5t168 73.5q58 0 94.5 -24t48.5 -54v64h113v-398q0 -39 5 -89h-111q-5 28 -5 70z
M126 556l-1 18q0 56 28.5 85.5t74.5 29.5q33 0 70 -22l10 -6q28 -17 43 -17q31 0 31 44h76v-17q0 -56 -28.5 -86.5t-73.5 -30.5q-33 0 -71 23l-10 6q-27 16 -43 16q-30 0 -30 -43h-76z" />
    <glyph glyph-name="adieresis.ss02" horiz-adv-x="599" 
d="M120 625q0 27 18.5 46t45.5 19q28 0 47 -19t19 -46q0 -28 -19 -46.5t-47 -18.5q-27 0 -45.5 18.5t-18.5 46.5zM320 625q0 27 18.5 46t45.5 19t46 -19t19 -46q0 -28 -19 -46.5t-46 -18.5t-45.5 18.5t-18.5 46.5zM153 246q0 -71 36 -115t96 -44q57 0 93 44.5t36 114.5
t-35.5 112t-93.5 42q-59 0 -95.5 -42t-36.5 -112zM415 70q-17 -37 -54.5 -60t-88.5 -23q-105 0 -170 73.5t-65 185.5q0 108 65 181.5t168 73.5q58 0 94.5 -24t48.5 -54v64h113v-398q0 -39 5 -89h-111q-5 28 -5 70z" />
    <glyph glyph-name="aring.ss02" horiz-adv-x="599" 
d="M153 246q0 -71 36 -115t96 -44q57 0 93 44.5t36 114.5t-35.5 112t-93.5 42q-59 0 -95.5 -42t-36.5 -112zM415 70q-17 -37 -54.5 -60t-88.5 -23q-105 0 -170 73.5t-65 185.5q0 108 65 181.5t168 73.5q58 0 94.5 -24t48.5 -54v64h113v-398q0 -39 5 -89h-111q-5 28 -5 70z
M394 638q0 -47 -33.5 -78.5t-80.5 -31.5q-46 0 -79.5 32t-33.5 78q0 47 33.5 79t79.5 32q47 0 80.5 -32t33.5 -79zM324 638q0 20 -13 32.5t-32 12.5q-18 0 -30.5 -13t-12.5 -32t12.5 -31.5t30.5 -12.5q19 0 32 12.5t13 31.5z" />
    <glyph glyph-name="r.ss03" horiz-adv-x="367" 
d="M191 487v-487h-116v487h116zM192 412q0 34 23 57.5t57 23.5t57.5 -23.5t23.5 -57.5t-23.5 -57t-57.5 -23t-57 23t-23 57z" />
    <glyph glyph-name="ampersand.ss04" horiz-adv-x="694" 
d="M386 237v103h283v-103h-79v-6q-2 -105 -72.5 -175.5t-193.5 -70.5q-119 0 -191.5 59.5t-72.5 152.5q0 72 42.5 122t102.5 67q-48 17 -79 57t-31 95q0 79 61.5 132.5t154.5 53.5q110 0 166 -56t62 -139l-117 -16q-2 51 -30 80t-80 29q-40 0 -69 -25t-29 -64
q0 -45 32 -69.5t68 -24.5h12v-103q-56 0 -100 -31.5t-44 -96.5q0 -48 37.5 -83t106.5 -35q65 0 103.5 37.5t39.5 103.5v6h-83z" />
    <glyph glyph-name="one.ss05" horiz-adv-x="477" 
d="M42 104h157v340h-153v82q67 1 111.5 35t55.5 87h104v-544h152v-104h-427v104z" />
    <glyph glyph-name="registered.ss06" horiz-adv-x="429" 
d="M24 526q0 79 55.5 134.5t134.5 55.5t135 -55.5t56 -134.5t-56 -134.5t-135 -55.5t-134.5 55.5t-55.5 134.5zM75 526q0 -59 40.5 -100.5t98.5 -41.5t99 41.5t41 100.5t-41 100.5t-99 41.5t-98.5 -41.5t-40.5 -100.5zM240 430l-29 65h-13v-65h-54v196h84q28 0 48 -19
t20 -46q0 -38 -35 -56l36 -75h-57zM198 539h17q26 0 26 22q0 21 -26 21h-17v-43z" />
    <glyph glyph-name="caron.alt" horiz-adv-x="208" 
d="M178 709l-68 -189h-80l29 189h119z" />
    <glyph glyph-name="commaaccent" horiz-adv-x="201" 
d="M30 673q0 26 19.5 42.5t47.5 16.5q31 0 52.5 -21.5t21.5 -58.5q0 -64 -39 -92.5t-90 -28.5v45q31 0 51 13t22 33q-12 -6 -25 -6q-27 0 -43.5 15.5t-16.5 41.5z" />
    <glyph glyph-name="commaturn" horiz-adv-x="180" 
d="M161 596q0 -25 -19 -41.5t-48 -16.5t-51.5 21.5t-22.5 58.5q0 58 40.5 89t88.5 31v-44q-30 0 -50.5 -14.5t-22.5 -32.5q7 7 25 7q27 0 43.5 -16t16.5 -42z" />
    <glyph glyph-name="dieresis.narrow" horiz-adv-x="315" 
d="M19 625q0 26 17.5 44t43.5 18q25 0 43 -18t18 -44q0 -25 -17.5 -43t-43.5 -18t-43.5 17.5t-17.5 43.5zM174 625q0 26 17.5 44t42.5 18q26 0 44 -18t18 -44t-18 -43.5t-44 -17.5q-25 0 -42.5 18t-17.5 43z" />
    <glyph glyph-name="dieresis.uc.narrow" horiz-adv-x="334" 
d="M20 821q0 26 17.5 44t43.5 18t44.5 -18t18.5 -44t-18.5 -44t-44.5 -18t-43.5 18t-17.5 44zM190 821q0 26 18 44t44 18t44 -18t18 -44t-18 -44t-44 -18t-44 18t-18 44z" />
    <glyph glyph-name="grave.uc" horiz-adv-x="283" 
d="M156 759l-143 124h148l103 -124h-108z" />
    <glyph glyph-name="dieresis.uc" horiz-adv-x="427" 
d="M24 821q0 28 19 47.5t47 19.5t47.5 -19.5t19.5 -47.5t-19.5 -47t-47.5 -19t-47 19t-19 47zM271 821q0 28 18.5 47.5t46.5 19.5t47.5 -19.5t19.5 -47.5t-19.5 -47t-47.5 -19t-46.5 19t-18.5 47z" />
    <glyph glyph-name="macron.uc" horiz-adv-x="340" 
d="M320 776h-300v93h300v-93z" />
    <glyph glyph-name="acute.uc" horiz-adv-x="283" 
d="M270 883l-142 -124h-109l102 124h149z" />
    <glyph glyph-name="circumflex.uc" horiz-adv-x="408" 
d="M131 759h-107l116 124h129l119 -124h-110l-75 64z" />
    <glyph glyph-name="caron.uc" horiz-adv-x="408" 
d="M24 883h109l72 -65l75 65h108l-119 -124h-129z" />
    <glyph glyph-name="breve.uc" horiz-adv-x="369" 
d="M185 754q-74 0 -116 39t-45 93h93q2 -22 19 -38t49 -16t49 16t18 38h93q-2 -54 -44 -93t-116 -39z" />
    <glyph glyph-name="dotaccent.uc" horiz-adv-x="186" 
d="M20 826q0 31 21.5 52t51.5 21t51.5 -21t21.5 -52q0 -29 -21.5 -50t-51.5 -21t-51.5 21t-21.5 50z" />
    <glyph glyph-name="ring.uc" horiz-adv-x="285" 
d="M265 860q0 -50 -36.5 -84.5t-86.5 -34.5t-86 34.5t-36 84.5t36 84.5t86 34.5t86.5 -34.5t36.5 -84.5zM189 860q0 21 -13.5 34t-33.5 13t-33.5 -13t-13.5 -34t13.5 -34t33.5 -13t33.5 13t13.5 34z" />
    <glyph glyph-name="tilde.uc" horiz-adv-x="372" 
d="M353 886v-23q0 -53 -28 -81.5t-71 -28.5q-35 0 -73 23l-10 7q-27 17 -45 17q-12 0 -21 -8.5t-9 -24.5v-10h-75v22q0 53 28 81.5t72 28.5q36 0 74 -23l10 -6q30 -17 43 -17q31 0 31 33v10h74z" />
    <glyph glyph-name="hungarumlaut.uc" horiz-adv-x="376" 
d="M194 883l-95 -124h-79l56 124h118zM356 883l-107 -124h-80l69 124h118z" />
    <glyph glyph-name="caron.alt.uc" horiz-adv-x="208" 
d="M187 709l-72 -200h-85l31 200h126z" />
    <glyph glyph-name="undercommaaccent" horiz-adv-x="181" 
d="M20 -96q0 25 19.5 42t47.5 17q30 0 52 -21.5t22 -59.5q0 -62 -39.5 -91t-89.5 -29v44q30 0 50.5 14.5t22.5 33.5q-7 -7 -25 -7q-27 0 -43.5 15.5t-16.5 41.5z" />
    </font>
</defs>
</svg>
