<svg width="210" height="193" viewBox="0 0 210 193" fill="none" xmlns="http://www.w3.org/2000/svg">
<path d="M77.6138 61.3782C78.5038 60.4933 79.2098 59.441 79.6913 58.282C80.1727 57.123 80.4201 55.8802 80.419 54.6252C80.418 53.3702 80.1686 52.1278 79.6852 50.9696C79.2019 49.8114 78.4941 48.7603 77.6027 47.8768C76.7113 46.9934 75.6538 46.2951 74.4913 45.8222C73.3288 45.3493 72.0842 45.1111 70.8293 45.1213C69.5743 45.1316 68.3338 45.3901 67.1791 45.8819C66.0245 46.3738 64.9786 47.0893 64.1018 47.9872C56.177 55.9926 50.8035 66.1677 48.6605 77.2265C46.5175 88.2852 47.7012 99.7311 52.0621 110.117C56.4229 120.503 63.765 129.363 73.1604 135.577C82.5558 141.792 93.5825 145.081 104.847 145.029C116.111 144.978 127.108 141.588 136.446 135.288C145.784 128.988 153.045 120.061 157.31 109.635C161.576 99.2097 162.655 87.7535 160.41 76.7149C158.166 65.6762 152.7 55.5507 144.702 47.6182C143.815 46.7389 142.763 46.043 141.606 45.5703C140.45 45.0976 139.212 44.8573 137.962 44.8631C136.713 44.8689 135.477 45.1207 134.325 45.6042C133.173 46.0876 132.128 46.7932 131.248 47.6807C130.369 48.5681 129.673 49.6201 129.201 50.7765C128.728 51.9329 128.488 53.1711 128.493 54.4204C128.499 55.6696 128.751 56.9055 129.234 58.0575C129.718 59.2095 130.424 60.2549 131.311 61.1342C136.644 66.42 140.291 73.1687 141.789 80.5267C143.287 87.8848 142.569 95.5218 139.727 102.472C136.885 109.422 132.046 115.374 125.821 119.574C119.597 123.774 112.267 126.034 104.758 126.069C97.2488 126.103 89.8982 123.91 83.6356 119.767C77.3729 115.624 72.4793 109.717 69.5736 102.793C66.6679 95.8695 65.8806 88.2394 67.3112 80.8679C68.7418 73.4964 72.3261 66.7147 77.6108 61.3802L77.6138 61.3782Z" fill="url(#paint0_linear)"/>
<path d="M144.54 0.00125434C138.292 0.0125588 132.108 1.26307 126.346 3.68042C120.584 6.09777 115.359 9.63394 110.973 14.0842C109.196 15.8737 106.782 16.8852 104.26 16.8966C101.738 16.9081 99.3141 15.9186 97.5209 14.1452C88.5537 5.28078 76.4367 0.334948 63.8277 0.392688C51.2188 0.450429 39.1475 5.50702 30.2619 14.4532C15.7119 29.1501 5.84575 47.8308 1.91071 68.1339C-2.02433 88.437 0.148347 109.451 8.15412 128.519C16.1599 147.588 29.6394 163.855 46.8885 175.264C64.1377 186.673 84.3822 192.712 105.063 192.617C125.744 192.523 145.932 186.299 163.076 174.733C180.221 163.167 193.551 146.777 201.382 127.637C209.213 108.496 211.194 87.4629 207.073 67.1966C202.953 46.9303 192.917 28.3405 178.233 13.7772C173.807 9.36735 168.55 5.87913 162.766 3.51448C156.983 1.14983 150.788 -0.0442705 144.54 0.00125434ZM164.84 27.2902C176.868 39.2081 185.091 54.4248 188.47 71.0163C191.849 87.6077 190.233 104.828 183.825 120.501C177.417 136.174 166.506 149.594 152.47 159.066C138.435 168.537 121.906 173.634 104.974 173.711C88.0422 173.789 71.4676 168.844 57.3462 159.501C43.2248 150.159 32.1908 136.838 25.6397 121.225C19.0886 105.612 17.3146 88.4064 20.5419 71.7847C23.7692 55.163 31.853 39.8716 43.7709 27.8442C49.1028 22.4765 56.3459 19.4426 63.9116 19.4079C71.4774 19.3732 78.748 22.3406 84.1289 27.6592C89.5085 32.9782 96.7784 35.9459 104.344 35.9115C111.909 35.877 119.151 32.843 124.482 27.4752C129.809 22.0996 137.054 19.0601 144.622 19.0254C152.19 18.9907 159.462 21.9636 164.838 27.2902" fill="url(#paint1_linear)"/>
<path d="M104.585 104.939C113.121 104.939 120.04 98.0198 120.04 89.4843C120.04 80.9487 113.121 74.0293 104.585 74.0293C96.0493 74.0293 89.1299 80.9487 89.1299 89.4843C89.1299 98.0198 96.0493 104.939 104.585 104.939Z" fill="url(#paint2_linear)"/>
<defs>
<linearGradient id="paint0_linear" x1="104.586" y1="202.726" x2="104.586" y2="0.589271" gradientUnits="userSpaceOnUse">
<stop stop-color="#007BFF"/>
<stop offset="1" stop-color="#38A3DC"/>
</linearGradient>
<linearGradient id="paint1_linear" x1="104.585" y1="202.635" x2="104.585" y2="0.57785" gradientUnits="userSpaceOnUse">
<stop stop-color="#007BFF"/>
<stop offset="1" stop-color="#38A3DC"/>
</linearGradient>
<linearGradient id="paint2_linear" x1="104.585" y1="202.8" x2="104.585" y2="0.587131" gradientUnits="userSpaceOnUse">
<stop stop-color="#00AB9E"/>
<stop offset="0.0001" stop-color="#007BFF"/>
<stop offset="1" stop-color="#38A3DC"/>
</linearGradient>
</defs>
</svg>
